<?xml version="1.0" encoding="UTF-8" standalone="no"?>
<svg
   xmlns:dc="http://purl.org/dc/elements/1.1/"
   xmlns:cc="http://creativecommons.org/ns#"
   xmlns:rdf="http://www.w3.org/1999/02/22-rdf-syntax-ns#"
   xmlns:svg="http://www.w3.org/2000/svg"
   xmlns="http://www.w3.org/2000/svg"
   xmlns:sodipodi="http://sodipodi.sourceforge.net/DTD/sodipodi-0.dtd"
   xmlns:inkscape="http://www.inkscape.org/namespaces/inkscape"
   version="1.0"
   width="6300pt"
   height="3100pt"
   viewBox="0 0 6300 3100"
   preserveAspectRatio="xMidYMid meet"
   id="svg2"
   inkscape:version="0.91 r13725"
   sodipodi:docname="painting_9_white.svg">
  <defs
     id="defs22" />
  <sodipodi:namedview
     pagecolor="#ffffff"
     bordercolor="#666666"
     borderopacity="1"
     objecttolerance="10"
     gridtolerance="10"
     guidetolerance="10"
     inkscape:pageopacity="0"
     inkscape:pageshadow="2"
     inkscape:window-width="1366"
     inkscape:window-height="714"
     id="namedview20"
     showgrid="false"
     inkscape:zoom="0.08651244"
     inkscape:cx="3745.3432"
     inkscape:cy="2220.3693"
     inkscape:window-x="0"
     inkscape:window-y="0"
     inkscape:window-maximized="1"
     inkscape:current-layer="g6" />
  <metadata
     id="metadata4">
Created by potrace 1.15, written by Peter Selinger 2001-2017
<rdf:RDF>
  <cc:Work
     rdf:about="">
    <dc:format>image/svg+xml</dc:format>
    <dc:type
       rdf:resource="http://purl.org/dc/dcmitype/StillImage" />
    <dc:title></dc:title>
  </cc:Work>
</rdf:RDF>
</metadata>
  <g
     transform="matrix(0.1,0,0,-0.1,0,3100)"
     id="g6"
     style="fill:#000000;stroke:none">
    <path
       d="m 12495.167,30559.08 c -198,-9 -319,-36 -480,-104 -288,-123 -439,-220 -645,-414 -347,-328 -378,-361 -606,-638 -191,-233 -270,-346 -424,-608 -298,-505 -608.0003,-1268 -861.0006,-2119 -69,-232 -145,-488 -170,-570 -168,-561 -296,-1126 -414,-1820 -131,-776 -251,-1497 -265,-1596 -9,-58 -45,-316 -81,-575 -35,-258 -73,-531 -84,-605 -67,-471 -109,-789 -179,-1355 -44,-352 -82,-669 -86,-705 -17,-165 -74,-591 -82,-603 -4,-8 -49,-45 -99,-83 -50,-38 -133,-102 -185,-142 -163,-127 -564,-426 -837,-625 -406,-296 -713,-520 -777,-567 -22,-17 -98,-72 -169,-123 -71,-50 -226,-164 -345,-253 -311,-231 -629,-466 -756,-557 -60,-44 -133,-100 -161,-124 -40,-34 -53,-40 -57,-28 -4,8 -11,74 -17,147 -25,317 -31,383 -50,563 -47,435 -59,567 -111,1190 -11,138 -27,288 -34,334 -8,47 -12,88 -9,93 7,11 -34,433 -56,573 -10,66 -22,152 -25,190 -4,39 -92,588 -196,1220 -104,633 -196,1194 -205,1248 -13,86 -213,1159 -249,1337 -40,203 -164,619 -219,736 -125,263 -302,487 -431,544 -96,42 -159,55 -270,55 -117,0 -119,-1 -250,-75 -127,-72 -314,-273 -487,-523 -138,-200 -220,-362 -323,-642 -129,-347 -236,-670 -279,-835 -84,-325 -338,-1304 -362,-1390 -29,-108 -150,-616 -258.99995,-1080 -68,-293 -177,-829 -259,-1275 -37,-199 -54,-347 -81,-700 -20,-247 -118.99995,-1070 -191.99995,-1590 -10,-76 -18,-188 -18,-270 0,-123 2,-144 20,-169 47,-69 56,-75 255.99995,-141 226,-75 753.99995,-201 795.99995,-190 61,15 143,153 162,275 17,105 63,1339 81,2155 5,264 15,527 21,585 10,94 74,464 189,1100 21,118 44,249 50,290 10,67 58,296 125,600 13,58 51,242 85,410 99,498 172,794 266,1085 48,146 495,1348 522,1400 43,85 131,179 178,191 50,13 104,-20 150,-91 14,-22 333,-1540 370,-1765 13,-79 24,-169 24,-200 0,-64 25,-218 45,-275 7,-22 21,-107 30,-190 9,-82 32,-244 52,-360 19,-115 45,-277 58,-360 13,-82 37,-238 54,-345 42,-273 180,-1500 191,-1705 5,-93 28,-348 50,-565 41,-402 80,-789 99,-1005 39,-417 64,-679 71,-740 5,-38 9,-94 9,-124 l 1,-53 -122,-121 c -68,-67 -184,-177 -258,-246 -335,-309 -556,-549 -805,-876 -22,-29 -68,-88 -102,-131 -261,-331 -356,-471 -635,-939 -88,-146 -168,-294 -168,-309 0,-4 -17,-35 -38,-69 -53,-89 -68,-115 -98,-177 -14,-30 -46,-95 -70,-145 -24,-49 -90,-216 -147,-370 -191,-515 -213,-592 -223,-766 -10,-188 23,-288 144,-440 74,-94 158,-167 297,-259 153,-102 196,-118 342,-126 107,-6 132,-4 248,21 72,15 158,38 191,50 125,47 478,234 615,326 13,9 141,87 284,174 143,88 324,201 402,252 79,52 151,97 161,101 29,11 157,92 235,149 40,29 75,53 80,53 16,0 41,-85 152,-525 144,-568 167,-646 273,-927 103,-273 196,-394 378,-490 121,-64 242,-83 419,-66 98,9 383,66 642,128 66,16 186,96 310,207 58,53 94,95 127,152 25,43 46,81 46,84 0,3 20,48 44,100 24,52 47,105 51,118 4,13 20,49 35,79 15,30 96,242 180,470 83,228 178,487 211,575 71,194 106,313 197,686 90,362 115,488 202,994 39,226 84,484 100,575 17,91 37,209 45,264 8,54 20,105 26,112 7,8 60,49 118,91 199,143 846,606 911,651 61,42 104,74 285,207 340.0003,250 1118.0006,778 1310.0006,890 55,31 186,109 290,171 156,93 241,135 473,234 156,66 287,120 292,120 5,0 44,15 87,33 149,63 425,122 621,133 103,6 135,4 233,-16 l 114,-24 65,-60 c 92,-84 104,-120 103,-301 -1,-225 -34,-746 -49,-782 -13,-32 -15,-33 -70,-33 -32,0 -164,7 -293,16 -281,20 -329,15 -530,-52 -249,-83 -572,-268 -816,-469 -27,-22 -79,-63 -115,-90 -174,-130 -421,-370 -571,-553 -125,-155 -180,-239 -311,-482 -203,-374 -328.0003,-619 -362.0003,-707 -63,-165 -94,-302 -157,-688 -59,-367 -62,-387 -63,-575 -2,-320 44,-663 119,-886 37,-112 149,-342 212,-436 80.0003,-120 285.0003,-367 336.0003,-405 97,-74 191,-121 358,-177 135,-45 185,-57 276,-66 108,-10 116,-9 334,30 166,30 264,54 378,92 172,58 234,95 390,237 92,82 263,281 306,356 70,119 105,424 70,620 -17,96 -121,316 -182,383 -67,74 -190,158 -267,184 -102,33 -294,33 -381,0 -82,-31 -150,-84 -206,-162 -88,-121 -99,-281 -28,-429 36,-77 116,-158 190,-195 l 57,-27 5,-57 c 11,-123 -46,-276 -137,-368 -93,-92 -185,-126 -391,-143 -224,-19 -320,14 -464,158 -125,124 -179,196 -244,323 -57,111 -59,118 -107,361 l -49,249 -1,251 c -1,199 3,288 20,422 47,378 96,608 171,800 81,206 226,504 321,660 132,219 389,520 605,711 439,389 785,651 953,721 119,50 169,59 243,45 97,-20 216,-83 273,-145 73,-80 96,-134 95,-220 -1,-89 -20,-338 -32,-432 -18,-131 -68,-899 -79,-1215 -17,-439 -18,-973 -2,-1160 6,-85 16,-213 22,-285 23,-327 82,-662 143,-817 62,-158 82,-195 170,-318 95,-133 214,-243 378,-348 233,-150 421,-217 639,-229 186,-10 298,16 555,130 249,109 420,217 533,336 106,112 311,356 382,456 25,35 78,108 117,163 67,92 74,105 88,181 12,63 14,98 6,150 -10,78 -30,115 -74,137 l -30,16 -411,-410 c -442,-441 -502,-491 -671,-562 -135,-55 -233,-73 -375,-67 -149,7 -235,29 -342,85 -247,129 -392,324 -458,612 -11,52 -28,124 -37,160 -31,129 -37,172 -67,485 -27,272 -39,519 -39,790 0,350 40,1207 64,1370 9,61 49,684 130,2005 l 23,365 -27,108 c -35,139 -125,321 -197,400 -82,90 -240,222 -312,261 -67,36 -69,36 -240,46 -115,7 -232,7 -348,1 -201,-11 -249,-23 -530,-134 -365,-143 -1214,-550 -1470,-704 -91,-55 -257,-156 -370,-224 -170.0003,-104 -593.0006,-393 -931.0006,-639 -42,-30 -109,-77 -149,-105 -39,-27 -117,-82 -173,-122 -56,-40 -128,-89 -160,-110 -55,-37 -238,-168 -368,-266 -35,-26 -65,-43 -67,-37 -2,6 3,53 12,103 9,51 41,265 71,477 31,212 67,462 81,555 59,401 235,1629 285,1995 9,65 17,89 33,103 12,9 120,88 241,174 840.0003,600 1138.0006,819 1420.0006,1044 415,331 619,514 1047,937 452,447 698,727 1241,1411 277,349 391,513 554,796 60,105 171,296 245,425 75,129 154,271 176,315 76,152 213,489 283,694 39,113 101,296 139,406 222,652 193,552 344,1186 64,267 116,498 116,513 0,16 13,94 29,175 52,256 62,312 71,390 5,42 16,132 24,201 11,92 16,287 20,735 l 5,610 -39,225 c -63,367 -82,437 -182,680 -89,215 -133,304 -203,411 -79,121 -110,156 -258,286 -167,147 -227,173 -608,272 -64,16 -190,41 -281,55 -175,28 -260,30 -558,15 z m 93,-1570 c 229,-46 408,-142 584,-312 171,-165 280,-356 334,-584 46,-192 59,-669 35,-1213 -13,-277 -15,-294 -75,-635 -57,-321 -69,-374 -151,-645 -49,-162 -114,-383 -145,-490 -83,-284 -189,-558 -452,-1165 -266,-613 -506,-1099 -673,-1365 -77,-124 -542,-832 -680,-1037 -8,-12 -106,-136 -217,-275 -187,-235 -228,-280 -580,-629 -434,-431 -392,-398 -1179.0006,-954 -103,-73 -482,-347 -597,-432 -26,-20 -50,-33 -52,-31 -5,4 31,275 100,753 18,132 41,319 50,415 9,96 34,287 56,423 21,136 73,496 114,800 42,304 92,667 111,807 79,582 141,1040 150,1115 5,48 78,492 109,665 36,200 154.0003,723 336.0003,1480 17,69 46,190 64,270 65,274 124,466 239.0003,783 64,175 116,323 116,328 0,6 30,85 66,177 143,362 174,440 202,517 39,105 150,321 197,382 122,160 315,366 410,437 197,148 548,304 822,366 76,17 153,36 171,41 104,33 391,38 535,8 z m -4572.0006,-11002 c -11,-67 -22,-140 -25,-162 -3,-22 -39,-251 -80,-510 -40,-258 -83,-537 -95,-620 -35,-236 -239,-1476 -251,-1515 -5,-19 -21,-98 -36,-175 l -25,-140 -57,-40 c -31,-22 -61,-42 -66,-44 -6,-2 -51,-34 -101,-71 -49,-36 -209,-152 -355,-256 -146,-105 -497,-358 -780,-564 -283,-205 -618,-448 -745,-538 -126,-91 -255,-186 -285,-211 -93,-79 -141,-114 -147,-108 -3,3 -14,82 -25,174 -10,92 -25,227 -34,298 -8,72 -46,562 -84,1090 -38,528 -72,983 -75,1012 -6,50 -5,52 42,105 26,30 62,65 79,79 18,13 68,56 111,94 44,39 109,91 144,117 35,26 109,83 164,127 55,45 134,106 175,138 41,31 107,84 145,117 39,34 146,117 239,186 92,69 252,193 355,275 103,83 205,164 227,181 92,72 900,635 1139,794 143,95 281,188 306,206 26,19 51,34 55,34 5,0 29,18 54,40 33,28 46,35 48,24 2,-8 -5,-70 -17,-137 z m -3657,-2629 c 11,-71 27,-337 36,-618 21,-612 59,-1270 94,-1640 20,-206 38,-380 41,-387 6,-16 -40,-50 -225,-168 -85,-54 -227,-146 -315,-205 -88,-59 -203,-131 -255,-161 -52,-29 -153,-89 -225,-132 -545,-332 -693,-417 -720,-417 -2,0 -50,-22 -106,-49 -123,-60 -200,-73 -281,-46 -80,26 -122,65 -165,153 -37,75 -38,80 -37,182 1,66 7,129 18,170 22,80 132,381 233,635 119,300 137,335 416,799 226,376 500,749 975,1330 46,55 153,189 239,296 146,182 244,290 264,290 4,0 10,-15 13,-32 z m 2977,-1730 c -60,-304 -128,-654 -151,-778 -79,-434 -108,-533 -280,-975 -17,-44 -35,-91 -40,-105 -30,-91 -274,-623 -303,-662 -44,-58 -227,-257 -289,-315 -126,-117 -203,-139 -424,-123 -192,15 -238,30 -324,107 -67,61 -100,122 -158,303 -92,283 -288,1015 -332,1241 -23,115 -18,122 128,221 70,48 231,162 357,253 127,91 280,201 340,245 265,190 463,336 887,656 249,187 473,355 498,372 25,18 79,56 120,86 47,34 76,49 78,41 2,-7 -46,-262 -107,-567 z"
       id="path8"
       style="fill:#ffffff;fill-opacity:1"
       inkscape:connector-curvature="0" />
    <path
       d="m 44125.167,27704.08 c -19,-8 -72,-22 -118,-29 -82,-13 -158,-49 -205,-97 -10,-10 -30,-21 -45,-24 -15,-4 -36,-15 -47,-24 -11,-10 -36,-25 -55,-35 -64,-32 -100,-64 -100,-91 0,-13 -5,-24 -12,-24 -6,0 -8,-3 -5,-6 4,-4 -5,-20 -19,-37 -21,-24 -24,-37 -21,-73 3,-24 2,-43 -2,-42 -18,4 -64,-29 -83,-60 -12,-19 -43,-60 -71,-91 -59,-67 -136,-180 -176,-258 -17,-32 -39,-71 -50,-88 -12,-16 -30,-58 -41,-91 -12,-34 -30,-70 -40,-79 -11,-10 -20,-26 -20,-37 0,-10 -4,-18 -9,-18 -5,0 -13,-10 -16,-22 -4,-13 -20,-43 -35,-68 -15,-25 -33,-63 -40,-85 -13,-40 -43,-98 -62,-122 -6,-7 -23,-40 -39,-74 -16,-33 -42,-79 -57,-102 -73,-107 -101,-157 -116,-211 -10,-32 -33,-82 -52,-110 -19,-28 -34,-57 -34,-64 0,-7 -10,-36 -21,-63 -22,-51 -25,-66 -28,-131 -1,-24 -10,-46 -26,-64 -14,-15 -25,-30 -26,-33 -4,-33 -13,-63 -34,-110 -28,-64 -51,-145 -60,-212 -3,-26 -18,-66 -34,-90 -15,-24 -33,-60 -39,-79 -7,-19 -28,-61 -47,-92 -28,-44 -41,-83 -60,-180 -14,-68 -25,-142 -25,-166 0,-35 -6,-49 -31,-74 -16,-17 -33,-45 -36,-62 -3,-17 -14,-40 -23,-51 -30,-34 -40,-61 -55,-148 -8,-46 -28,-113 -44,-148 -17,-35 -44,-116 -60,-180 -16,-64 -36,-129 -44,-146 -19,-36 -80,-231 -114,-368 -43,-165 -56,-208 -75,-245 -10,-19 -18,-41 -18,-50 0,-8 -15,-40 -34,-70 -27,-43 -38,-77 -49,-147 -10,-60 -29,-121 -55,-180 -22,-48 -47,-122 -57,-165 -9,-43 -27,-91 -41,-109 -13,-19 -32,-58 -41,-89 -9,-30 -23,-62 -29,-70 -7,-9 -24,-40 -37,-70 -14,-30 -43,-77 -65,-104 -23,-27 -39,-52 -37,-56 2,-3 -10,-21 -26,-39 -28,-32 -29,-37 -28,-131 1,-83 -3,-105 -26,-160 -15,-35 -37,-78 -50,-94 -13,-17 -32,-56 -42,-86 -10,-30 -28,-71 -40,-90 -12,-19 -30,-72 -42,-116 -11,-45 -33,-104 -50,-131 -17,-27 -37,-80 -46,-119 -22,-100 -44,-181 -65,-245 -11,-31 -25,-96 -33,-145 -8,-49 -26,-117 -41,-151 -26,-62 -32,-89 -43,-198 -3,-33 -9,-62 -12,-65 -18,-15 -60,-92 -76,-140 -10,-30 -31,-74 -46,-97 -18,-25 -29,-55 -29,-75 0,-55 -45,-221 -72,-268 -38,-66 -102,-281 -110,-367 -1,-7 -6,-13 -11,-13 -6,0 -7,-3 -4,-7 4,-3 3,-11 -2,-17 -8,-10 -14,-38 -28,-125 -3,-18 -14,-59 -25,-90 -11,-31 -28,-86 -38,-123 -10,-37 -27,-80 -39,-97 -12,-17 -28,-61 -36,-98 -20,-93 -49,-189 -74,-245 -12,-25 -24,-68 -28,-95 -7,-59 -47,-140 -105,-215 -32,-41 -48,-73 -57,-115 -6,-32 -27,-105 -46,-163 -18,-58 -37,-121 -40,-140 -10,-53 -35,-128 -65,-195 -15,-33 -33,-87 -40,-120 -7,-33 -26,-83 -41,-110 -15,-28 -32,-77 -38,-110 -11,-73 -25,-109 -56,-155 -14,-20 -40,-78 -59,-130 -87,-238 -151,-386 -179,-408 -17,-15 -111,-52 -142,-57 -34,-5 -198,-85 -225,-109 -38,-33 -178,-111 -236,-130 -28,-9 -69,-30 -90,-46 -22,-16 -56,-33 -76,-36 -21,-4 -38,-10 -38,-15 0,-4 -19,-13 -42,-19 -56,-13 -150,-64 -211,-112 -27,-21 -60,-41 -73,-44 -13,-3 -24,-10 -24,-14 0,-5 -10,-12 -22,-16 -42,-13 -226,-130 -220,-140 9,-15 -57,-54 -92,-54 -14,0 -28,-5 -31,-10 -4,-6 -29,-22 -57,-36 -46,-23 -142,-104 -124,-104 7,0 -47,-44 -149,-121 -22,-17 -44,-37 -48,-45 -5,-8 -12,-12 -17,-9 -5,3 -11,1 -15,-5 -3,-5 -14,-10 -24,-10 -9,0 -60,-40 -112,-88 -52,-49 -107,-99 -124,-113 -16,-13 -46,-42 -65,-64 -19,-22 -65,-71 -102,-109 -51,-53 -68,-77 -68,-98 0,-15 0,-30 0,-33 -1,-2 -13,-17 -28,-33 -15,-16 -47,-63 -72,-106 -25,-42 -60,-100 -77,-128 -18,-29 -33,-62 -33,-73 0,-54 -43,-177 -84,-237 -14,-21 -18,-45 -17,-97 1,-58 -3,-73 -24,-102 -46,-64 -54,-86 -70,-193 -8,-60 -22,-120 -29,-135 -9,-18 -15,-99 -19,-280 -6,-260 1,-435 29,-646 9,-66 18,-149 20,-185 7,-95 11,-107 48,-148 19,-20 39,-57 46,-82 9,-32 30,-63 79,-115 37,-38 79,-87 95,-108 15,-21 44,-48 64,-61 238,-150 224,-143 337,-155 69,-7 91,-14 126,-39 24,-17 64,-36 88,-42 61,-16 91,-48 84,-91 -7,-47 -79,-175 -130,-233 -24,-26 -43,-54 -43,-61 0,-8 -15,-33 -33,-57 -19,-24 -46,-64 -60,-88 -14,-25 -37,-55 -49,-67 -13,-11 -56,-52 -96,-89 -40,-37 -75,-78 -78,-91 -3,-12 -14,-25 -23,-28 -33,-10 -121,-104 -121,-128 0,-26 -28,-57 -52,-57 -9,0 -44,-23 -79,-51 -59,-47 -100,-87 -280,-275 -36,-38 -85,-82 -108,-99 -24,-16 -63,-45 -87,-63 -51,-37 -182,-113 -269,-154 -33,-16 -67,-33 -75,-38 -32,-20 -107,-53 -149,-66 -83,-26 -379,-11 -456,22 -11,5 -57,35 -103,68 -135,95 -258,250 -331,416 -24,54 -28,123 -36,630 -6,404 -21,777 -35,865 -5,33 -14,240 -20,460 -6,220 -17,531 -25,690 -8,160 -22,423 -30,585 -30,617 -37,699 -67,900 -37,251 -43,294 -62,440 -74,572 -132,870 -238,1225 -53,177 -233,455 -388,598 -82,77 -238,178 -340,222 -83,36 -89,37 -240,42 -117,4 -173,1 -227,-10 -82,-18 -198,-73 -260,-123 -52,-43 -135,-165 -159,-236 -24,-69 -24,-186 -1,-253 54,-157 212,-260 397,-259 71,0 79,2 141,42 71,45 159,149 194,230 10,23 21,42 24,43 3,0 15,2 26,4 47,9 92,-15 161,-88 91,-93 178,-226 224,-341 71,-173 154,-615 210,-1106 61,-545 91,-836 96,-925 3,-55 7,-120 9,-145 12,-128 46,-805 55,-1085 6,-176 17,-475 25,-665 20,-461 35,-890 34,-985 -2,-139 21,-537 37,-643 26,-176 83,-366 144,-473 136,-241.0003 214,-329.9998 425,-483.9998 102,-75 152,-104 235,-136 159,-63 226,-77 451,-95 l 206,-17 89,28 c 187,57 278,86 298,97 39,19 370,231 411,262 22,17 81,63.9995 131,105.9995 51,41.0003 125,100.0003 165,130.0003 40,30 89,69 108,87 20,17 56,49 80,70 24,21 68,67 96,103 29,36 92,106 139,155 48,50 98,106 111,127 13,20 69,81 125,137 77,77 107,115 130,165 17,36 35,68 40,71 6,4 31,38 56,76 25,38 49,69 54,69 11,0 81,144 85,177 2,15 4,46 4,69 1,47 30,84 64,84 17,0 31,14 53,52 16,29 41,59 54,66 32,17 124,8 205,-20 139,-47 265,-59 640,-59 193,0 386,-4 430,-10 44,-5 127,-8 185,-7 225,4 355,-1 398,-16 29,-10 111,-18 264,-23 392,-14 666,-7 782,19 32,7 104,8 205,4 86,-3 181,-2 211,3 35,6 74,6 105,-1 57,-11 382,-18 754,-17 210,0 271,4 348,19 106,22 320,29 1083,35 245,2 537,6 648,10 182,5 209,8 250,27 42,20 64,23 222,24 96,1 244,4 329,7 84,3 165,1 178,-4 53,-20 139,-108 149,-151 1,-5 3,-9 4,-10 1,-2 3,-55 5,-118 6,-213 15,-344 30,-400 8,-30 14,-89 12,-130 -1,-43 6,-105 16,-145 12,-49 17,-113 17,-215 0,-143 11,-218 41,-270 7,-14 12,-29 11,-33 -1,-5 4,-45 13,-89 8,-44.0003 15,-107.0003 15,-139.9998 0,-85 28,-305 45,-357 8,-25 15,-70 15,-100 0,-31 5,-72 10,-90.9998 12,-40 38,-284 49,-445 6,-86 13,-119 31,-153 19,-37 22,-53 17,-107 -6,-59 7,-186 34,-355 6,-36 24,-103 40,-150 17,-48 35,-124 40,-175 6,-49 21,-125 35,-168 14,-47 24,-102 24,-139 0,-34 4,-99.9998 10,-146.9998 5,-47 14,-135 21,-196 6,-60 15,-115 20,-121 6,-7 13,-36 16,-65 3,-30 14,-70 23,-89 13,-25 21,-84 30,-205 12,-165 13,-172 48,-240 31,-59 37,-84 43,-160 8,-104 21,-170 48,-240 11,-27 27,-108 36,-179 18,-148 28,-171 102,-249 13,-13 18,-42 21,-129 3,-90 8,-123 28,-170 13,-31 24,-73 24,-91 0,-65 20,-142 50,-190 16,-26 39,-80 51,-120 12,-40 35,-95 51,-123 15,-28 28,-57 28,-65 0,-8 20,-57 45,-109 33,-70 45,-107 45,-142 0,-35 10,-66 39,-122 22,-41 45,-94 51,-118 6,-24 26,-68 45,-98 24,-40 38,-80 49,-142 8,-47 28,-112 44,-144 16,-33 35,-75 42,-94 8,-19 29,-57 47,-84 18,-27 40,-74 49,-104 9,-31 30,-88 47,-126 16,-39 36,-93 44,-121 8,-27 30,-75 47,-105 18,-30 49,-82 69,-115 19,-34 43,-91 51,-128 19,-79 80,-206 129,-264 21,-25 41,-66 52,-105 9,-34 30,-79 46,-100 16,-20 41,-63 56,-95 15,-32 55,-101 89,-153 34,-52 67,-114 73,-137 12,-43 32,-73 139,-213 35,-46 67,-92 72,-104 4,-11 22,-38 39,-60 17,-21 31,-47 31,-57 0,-10 4,-20 9,-23 11,-7 196,-280 230,-339 53,-94 76,-120 125,-143 34,-16 51,-30 53,-45 5,-33 39,-74 103,-125 33,-26 60,-50 60,-54 0,-13 255,-264.99995 301,-298.99995 26,-18 52,-45 59,-59 7,-15 15,-34 19,-42 4,-8 36,-29 70,-47 35,-18 71,-39 80,-47 9,-8 42,-26 73,-40 32,-13 73,-36 91,-50 18,-14 49,-32 68,-41 18,-8 41,-19 49,-24 13,-8 45,-22 60,-26 58,-14 79,-28 82,-53 2,-20 13,-31.99995 38,-42.99995 195,-92 264,-110 440,-119 121,-6 143,-10 215,-39 95,-38 197,-49 412,-41 139,5 142,6 186,37 24,18 104,59 177,93 73,33 152,74 175,89.99995 24,16 95,54 159,84 86,41 129,68 165,104 28,28 52,48 54,45 7,-6 280,254 344,327 53,61 57,69 67,130.99995 4,21 13,43 22,50 42,35 48,66 55,319 9,278 -6,459 -41,515 -11,17 -30,53 -44,82 -20,42 -32,55 -68,71 -35,15 -46,26 -55,57 -7,21 -10,42 -7,47 8,12 -23,45 -69,75 -20,13 -53,45 -72,72 -52,71 -135,109 -246,112 -135,2 -321,-12 -359,-28 -19,-8 -73,-17 -119,-20 -77,-6 -87,-9 -120,-38 -48,-43 -73,-55 -115,-55 -19,0 -37,-4 -41,-9 -3,-5 -38,-26 -78,-46 -40,-20 -99,-61 -132,-91 -33,-31 -78,-64 -100,-74 -43,-19 -129,-106 -157,-157 -28,-54 -61,-68 -158,-67 -59,0 -97,6 -125,18 -22,10 -61,24 -87,31 -54,15 -76,33 -72,58 4,28 -62,65 -129,73 -39,5 -70,16 -95,33 -20,15 -52,33 -69,40 -19,8 -33,21 -33,30 0,25 -39,57 -84,70 -42,11 -116,58 -116,73 0,5 -19,31 -41,58 -30,36 -55,54 -90,65 -65,22 -121,67 -269,216 -69,69 -142,137 -162,152 -20,15 -39,36 -43,46 -5,17 -81,138 -104,167 -5,6 -12,34 -16,62 -6,47 -14,58 -114,164 -206,217 -193,199 -201,281 -7,68 -28,128 -50,142 -6,4 -22,30 -36,58 -15,29 -40,69 -56,89 -16,21 -34,55 -40,75 -5,20 -28,63 -51,95 l -40,57 -7,119 c -6,135 -14,152 -103,213 -69,47 -157,177 -157,231 0,15 -5,30 -10,33 -6,4 -8,11 -4,16 7,12 -24,99 -35,99 -4,0 -13,16 -20,35 -6,19 -22,42 -35,52 -54,44 -67,75 -77,188 -7,80 -16,124 -34,163 -14,30 -25,66 -25,81 0,15 -8,31 -19,38 -11,7 -22,26 -26,42 -4,19 -19,38 -40,51 -62,39 -111,104 -123,166 -7,32 -24,71 -40,92 -41,54 -119,220 -127,270 -8,52 -71,192 -120,265 -25,38 -40,78 -56,152 -14,68 -32,117 -54,155 -26,43 -35,70 -40,125 -8,90 -31,197 -55,254 -10,26 -29,80 -41,121 -11,41 -27,87 -35,102 -8,15 -14,47 -15,70 0,24 -7,75 -15,113 -8,39 -21,104 -29,146 -8,46 -24,92 -40,114 -14,21 -34,70 -46,108.9998 -12,39 -30,88 -41,109 -10,21 -23,73 -28,115 -17,133 -30,216 -41,251 -6,18 -9,58 -7,89 3,31 1,70 -3,87 -33,123 -41,164 -54,270 -15,129 -30,237 -45,325 -5,30 -18,136 -30,235 -11,99 -33,234 -47,299.9998 -32,147 -44,255 -48,447 -4,136.9995 -6,151.9998 -33,214.9998 -17,37 -32,77 -36,88 -9,33 -48,411 -55,545 -5,92 -12,134 -25,160 -22,40 -35,231 -36,522 0,174 0,177 25,206 33,39 83,58 175,66 41,4 102,11 135,16 33,6 125,14 205,20 161,11 243,24 293,45 57,24 332,56 418,49 44,-4 97,-2 125,4 27,6 98,13 157,16 60,3 145,12 190,20 45,8 146,17 224,21 77,3 152,8 165,10 12,3 104,9 203,15 185,9 206,13 288,49 56,24 139,28 156,7 12,-15 10,-66 -9,-212 -15,-114 -30,-541 -28,-774 3,-273 -7,-469 -29,-540 -12,-39 -17,-100 -19,-210 -3,-212.0003 -7,-291.0003 -15,-295.9998 -4,-2 -7,-30 -8,-62 0,-47 6,-71 34,-127 19,-38 35,-74 35,-81 0,-48 155,-100 264,-89 34,4 79,7 101,6 63,-1 101,16 124,55 12,19 21,46 21,60 0,14 5,35 12,47 6,12 13,63 15,112 2,50 5,121.9995 7,159.9995 3,57.0003 -1,81.0003 -20,127.0003 -28,66 -30,117 -9,197 8,32 14,94 13,142 -1,46 1,112 4,145 5,42 2,79 -9,114 -14,47 -14,59 1,120 22,90 21,140 -3,234 -29,109 -29,270 -1,352 17,47 22,93 26,233 4,174 26,302 56,338 15,19 48,32 113,44 63,13 542,37 613,31 29,-2 97,3 150,11 53,9 135,19 182,22 47,4 137,15 200,25 63,10 194,24 290,30 258,16 330,26 460,65 38,11 112,18 235,22 138,4 205,11 287,29 59,13 125,24 147,24 23,0 85,6 139,14 53,8 138,17 187,21 76,5 154,14 425,49 19,2 53,9 75,15 22,6 83,11 135,11 52,0 149,5 215,11 66,5 185,13 265,18 115,7 155,13 195,31 32,14 79,24 130,27 44,3 89,10 99,15 62,33 131,28 259,-16 89,-31 102,-54 101,-174 -2,-85 -6,-110 -38,-197 -20,-55 -41,-134 -47,-175 -6,-41 -22,-100 -36,-130 -21,-43 -27,-73 -29,-140 -9,-288 -20,-405 -43,-448 -12,-24 -26,-66 -31,-95 -9,-55 -11,-75 -31,-337 -12,-152 -15,-169 -42,-218 -27,-49 -29,-57 -22,-125 10,-107 9,-149 -4,-294 -11,-120 -11,-139 6,-210.0003 13,-57.9995 18,-118.9995 18,-232.9995 1,-182 21,-381.9998 43,-426.9998 9,-18 72,-88 140,-155 68,-68 132,-139 142,-158 35,-68 161,-197 272,-278 61,-44 151,-63 293,-62 72,0 144,2 160,5 17,3 60,5 97,5 40,0 84,6 105,15 21,9 58,20 83,26 25,5 74,27 110,49 36,21 75,41 88,45 12,3 22,11 22,16 0,5 4,9 9,9 11,0 189,109 274,167 17,13 55,38 84,58 28,19 71,58 95,87 24,29 66,73 93,98 28,25 138,133 245,240.9998 107,108 220,212 250,232 30,19 90,71 133,116 43,44 83,81 88,81 12,0 115,74.9995 147,106.9995 12,12 22,27.0003 22,33.0003 0,9 8,12 26,9 4,0 10,4 13,9 3,6 45,28 92,49 77,36 129,78 129,105 0,13 26,38 39,38 6,0 11,4 11,9 0,4 19,21 43,37 42,29 95,71 154,125 18,16 39,29 46,29 20,0 117,98 117,118 0,24 28,62 45,62 7,0 37,25 67,56 60,62 105,80 149,58 29,-15 34,-24 55,-104 14,-50 61,-141 120,-228 13,-19 29,-53 36,-76 6,-23 20,-50 30,-62 10,-11 18,-27 18,-35 0,-8 9,-31 19,-50 18,-33 31,-88 46,-192.0003 6,-38 67,-112.9995 84,-101.9995 11,6 41,-39 41,-61 0,-22 80,-99 111,-107 13,-4 49,-30 80,-59 39,-37 93,-71 175,-112 65,-32 136,-74 156,-92 33,-30 90,-54 128,-54 26,0 169,-73.9998 257,-133.9998 36,-24 59,-30 170,-42 70,-8 171,-23 224,-34 53,-11 113,-22 134,-26 21,-3 47,-8 59,-11 68,-16 103,-20 178,-22 46,-1 133,-7 193,-13 61,-5 128,-10 150,-11 53,-1 230,21 280,35 22,7 42,12 45,13 27,7 101,16 175,21 52,3 107,14 130,24 22,10 65,23 97,29 31,7 77,26 102,43 30,19 67,33 104,38 58,9 133,33 187,61.9998 17,9 55,23 85,32 30,9 71,27 92,41 21,14 45,25 54,25 9,0 29,14 45,31 16,17 29,29 29,25 0,-5 74,28 135,61 62,34 203,175 240,239 18,32 55,71 107,112.9995 44,34 82,70 86,80.0003 3,9 18,28 33,44 15,15 35,51 43,80 8,28 43,94 76,145 90,137 91,143 101,402 4,124 15,266 24,315 16,93 13,241 -6,333 -5,23 -12,82 -15,130 -7,103 -32,218 -69,322 -14,41 -30,107 -35,147 -6,46 -20,92 -40,130 -16,32 -37,94 -45,138 -8,44 -23,91 -33,105 -29,38 -48,80 -60,132 -7,25 -27,73 -46,105 -19,32 -42,89 -51,127 -18,79 -75,205 -116,258 -16,20 -36,52 -44,71 -8,20 -19,39 -25,42 -17,11 -56,77 -70,119 -14,44 -89,130 -132,152 -34,17 -46,40 -50,88 -1,20 -5,36 -9,36 -3,0 -14,24 -23,53 -9,28 -33,81 -52,117 -20,36 -52,94 -71,130 -19,36 -45,75 -57,87 -35,32 -111,170 -135,242 -11,35 -34,84 -51,109 -33,49 -80,186 -80,230 0,45 33,122 71,166 19,23 46,59 58,81 12,22 49,59 81,83 32,23 74,67 94,97 20,30 46,61 57,68 33,24 173,190 203,243 16,27 39,58 52,70 13,11 36,50 52,85 16,35 41,81 55,102 14,20 28,56 32,80 4,23 16,64 26,90 11,26 19,67 19,90 0,60 8,83 35,97 38,20 65,90 72,182 5,78 4,85 -21,121 -14,21 -34,66 -43,100 -19,71 -89,169 -131,185 -15,6 -54,18 -86,27 -32,9 -87,30 -121,46 -91,43 -112,45 -168,15 -34,-19 -63,-26 -101,-26 -65,0 -138,-24 -279,-89 -104,-49 -108,-52 -133,-104 -19,-38 -41,-63 -76,-87 -98,-67 -135,-133 -124,-220 6,-43 4,-49 -18,-64 -14,-9 -34,-16 -46,-16 -31,0 -59,-29 -95,-100 -18,-36 -46,-89 -61,-118 -24,-46 -28,-68 -32,-175 -3,-67 -4,-153 -1,-192 2,-38 4,-191 4,-340 l 0,-270 -32,-60 c -18,-33 -33,-75 -33,-93 0,-48 -25,-80 -68,-88 -21,-4 -39,-10 -42,-14 -13,-20 -109,-129 -140,-160 -54,-54 -110,-132 -110,-152 0,-10 -7,-21 -14,-24 -8,-3 -35,-30 -59,-59 -24,-29 -70,-75 -103,-102 -87,-73 -145,-131 -190,-193 -23,-30 -63,-75 -89,-100 -83,-77 -118,-114 -175,-180 -30,-36 -70,-78 -90,-94 -70,-59 -223,-221 -271,-287 -28,-37 -72,-88 -99,-112 -26,-24 -63,-66 -81,-93 -17,-27 -59,-77 -92,-111 -50,-51 -69,-64 -111,-74 -28,-6 -76,-24 -106,-39 -30,-15 -70,-31 -88,-35 -41,-9 -185,-78 -230,-110 -50,-36 -158,-139 -171,-164 -6,-11 -25,-28 -40,-36 -17,-8 -51,-49 -80,-92 -28,-43 -79,-111 -113,-151 -35,-39 -66,-82 -69,-95 -3,-12 -11,-21 -17,-20 -7,2 -12,-2 -12,-8 0,-5 -4,-8 -8,-5 -5,3 -19,-13 -31,-34 -12,-22 -40,-54 -62,-72 -22,-17 -42,-42 -45,-55 -4,-13 -10,-23 -15,-23 -25,0 -49,-37 -49,-76 0,-35 -4,-43 -27,-54 -16,-7 -41,-15 -58,-17 -16,-3 -46,-15 -66,-29 -20,-14 -60,-34 -89,-45 -89,-34 -168,-78 -206,-115 -21,-19 -69,-51 -108,-71 -39,-19 -103,-59 -142,-89 -40,-29 -88,-56 -108,-59 -52,-10 -83,-38 -90,-82 -4,-21 -20,-56 -35,-78 -16,-22 -38,-61 -50,-86 -30,-63 -67,-95 -137,-120 -72,-25 -143,-69 -144,-88 0,-8 -3,-12 -6,-8 -3,3 -15,-3 -27,-13 -11,-11 -23,-17 -28,-15 -4,3 -20,-5 -36,-18 -57,-48 -184,-118 -229,-126 -26,-5 -50,-14 -54,-21 -4,-6 -9,-11 -11,-10 -2,1 -23,-3 -46,-10 -26,-8 -63,-33 -98,-66 -31,-30 -62,-54 -69,-54 -8,0 -20,-7 -27,-16 -23,-28 -55,-33 -186,-34 -144,-1 -173,3 -185,25 -5,8 -18,15 -29,15 -11,0 -37,8 -57,19 -109,55 -148,84 -242,184 -56,59 -108,107 -116,107 -22,0 -54,38 -54,65 0,14 -16,45 -35,71 -19,25 -38,58 -41,72 -4,15 -12,34 -20,42 -30,36 -44,104 -59,295 -18,215 -14,376 11,502 8,44 14,137 14,240 1,203 18,346 47,394 13,20 26,67 32,112 6,43 16,87 21,98 23,42 127,69 268,69 41,0 109,9 153,20 44,11 123,25 177,30 53,5 138,18 187,29 50,11 108,21 130,22 22,2 44,5 50,8 16,8 42,10 210,17 88,3 183,12 210,19 78,22 216,35 370,35 165,0 337,19 454,50 64,17 115,22 220,24 l 136,1 50,-35 c 47,-33 55,-35 130,-35 53,0 89,5 106,15 15,8 46,26 70,39 24,13 81,60 127,104 l 83,81 -5,61 c -5,56 -23,161 -45,247 -5,21 -25,62 -45,93 -33,48 -50,61 -78,56 -5,0 -8,6 -8,14 0,8 -4,15 -10,15 -5,0 -10,13 -10,30 0,58 -94,81 -289,70 -113,-6 -120,-8 -177,-43 -58,-36 -79,-42 -275,-77 -25,-5 -63,-13 -85,-18 -60,-16 -195,-30 -334,-37 -228,-11 -339,-32 -530,-102 -8,-3 -55,-7 -105,-9 -158,-6 -219,-13 -260,-28 -24,-9 -77,-15 -135,-16 -52,0 -113,-5 -135,-10 -22,-5 -105,-13 -185,-16 -173,-8 -204,1 -246,72 l -25,43 30,71 c 17,40 31,84 31,99 0,14 9,58 20,96 12,39 24,111 29,161 6,70 15,106 39,155 20,43 36,100 48,174 11,71 29,135 49,180 19,41 34,96 38,133 5,48 16,78 42,120 29,48 36,71 43,143 7,65 15,94 35,125 18,26 28,59 32,99 8,83 33,177 67,260 16,39 36,104 44,145 8,43 26,92 41,114 21,32 28,61 38,150 7,61 20,128 29,148 9,21 16,47 16,58 0,11 9,46 20,78 11,31 27,97 36,146 8,49 26,115 39,147 22,52 39,110 51,179 8,43 15,64 44,120 16,33 30,82 35,120 17,157 36,251 64,328 17,46 36,116 42,155 6,40 21,101 34,137 28,76 41,145 50,255 3,44 15,100 26,124 21,49 22,51 47,178 30,147 51,165 214,183 51,5 116,14 143,19 142,28 202,34 336,36 129,1 149,3 180,22 31,19 41,20 120,12 128,-13 172,-2 247,59 78,63 87,76 112,161 25,84 23,151 -7,242 -31,90 -39,93 -291,99 -119,4 -251,3 -292,-2 -41,-4 -173,-4 -294,0 l -218,8 -24,27 c -32,37 -30,74 7,159 28,64 31,83 39,226 9,163 16,197 57,297 22,51 26,83 33,221 8,151 11,167 41,235 27,63 32,88 35,169 1,52 7,115 13,140 6,25 11,89 11,142 0,53 4,118 10,145 31,153 49,269 55,353 14,204 28,545 29,750 2,139 8,263 20,350 10,74 21,185 26,245 4,61 13,128 19,150 6,22 11,105 11,185 1,102 5,157 16,185 8,22 17,91 19,155 5,106 7,117 30,137 31,27 44,85 45,191 0,64 6,102 26,160 22,64 25,84 19,131 -11,77 -10,127 6,266 7,66 14,201 14,300 0,177 -1,182 -32,270 -17,50 -39,125 -48,167 -12,56 -26,90 -51,122 -18,24 -41,64 -50,87 -25,62 -60,116 -114,174 -26,27 -52,66 -59,85 -6,19 -22,47 -36,63 -14,15 -23,27 -20,27 8,0 -44,69 -105,139 -35,41 -71,70 -100,83 -25,10 -67,33 -94,50 -38,25 -61,32 -108,34 -33,2 -66,8 -74,15 -8,6 -14,8 -14,3 0,-4 -10,2 -23,14 -22,21 -29,22 -197,17 -244,-6 -287,-14 -361,-66 -15,-10 -60,-23 -100,-29 -73,-10 -159,-51 -213,-102 -11,-10 -29,-21 -40,-24 -58,-17 -146,-62 -183,-93 -24,-20 -61,-51 -84,-70 -44,-38 -99,-111 -99,-134 0,-14 -38,-55 -55,-58 -33,-6 -57,-23 -83,-61 -16,-24 -42,-54 -57,-68 -56,-51 -105,-121 -105,-151 0,-23 -8,-33 -40,-51 -33,-19 -50,-41 -89,-113 -26,-49 -58,-117 -71,-150 -18,-43 -42,-77 -88,-124 -51,-50 -66,-72 -69,-100 -6,-51 -26,-98 -66,-158 -19,-28 -40,-75 -47,-105 -7,-29 -25,-75 -40,-103 -16,-27 -33,-70 -40,-94 -7,-28 -26,-58 -51,-83 -21,-21 -39,-40 -39,-41 -17,-102 -33,-164 -54,-210 -17,-36 -31,-89 -36,-140 -8,-67 -16,-90 -44,-132 -52,-77 -103,-183 -127,-265 -12,-41 -41,-103 -63,-137 -84,-127 -102,-155 -126,-201 -14,-26 -33,-60 -43,-74 -10,-15 -30,-60 -44,-100 -14,-40 -36,-88 -50,-106 -13,-18 -26,-42 -28,-54 -3,-12 -9,-24 -14,-27 -4,-3 -12,-22 -16,-41 -4,-19 -18,-56 -31,-82 -14,-27 -30,-76 -38,-111 -7,-35 -20,-77 -28,-93 -9,-16 -24,-44 -33,-63 -11,-20 -24,-83 -32,-154 -11,-99 -22,-139 -59,-235 -26,-64 -57,-133 -71,-154 -40,-65 -45,-86 -32,-147 10,-44 22,-66 58,-104 25,-26 66,-59 90,-74 42,-24 49,-25 163,-21 138,5 139,6 190,108 33,66 73,98 123,100 47,1 97,23 130,58 19,20 35,43 35,50 0,6 5,12 11,12 5,0 8,4 5,9 -4,5 -2,11 4,13 5,1 14,27 20,57 6,32 26,80 50,117 22,35 40,69 40,75 0,7 15,41 34,75 19,34 40,81 46,103 6,21 28,63 50,92 26,35 42,68 46,98 9,59 19,86 41,108 10,10 34,39 53,63 19,25 40,51 47,57 6,7 21,38 33,70 11,31 29,68 38,82 9,14 24,42 33,61 9,19 37,78 63,131 25,53 46,101 46,107 0,5 18,31 39,57 27,33 44,67 55,112 9,35 25,74 36,85 11,12 27,44 36,72 9,28 35,77 58,108 22,31 53,76 68,100 15,24 68,90 118,148 50,58 105,130 121,160 37,70 117,182 138,194 9,4 51,45 95,90 43,44 100,97 127,116 26,19 99,78 161,130 147,124 205,170 212,170 4,0 23,11 44,25 49,32 146,65 191,65 20,0 53,-8 73,-18 51,-23 177,-146 213,-207 27,-46 30,-60 36,-185 5,-110 11,-149 34,-210 50,-141 51,-152 53,-441 2,-250 4,-281 23,-335 29,-85 36,-215 15,-279 -15,-42 -17,-86 -15,-290 3,-335 2,-353 -21,-444 -18,-71 -19,-92 -10,-163 5,-46 10,-132 10,-193 0,-93 -4,-123 -25,-184 -25,-71 -45,-240 -50,-421 -7,-235 -16,-302 -52,-384 -24,-53 -40,-111 -50,-175 -8,-53 -23,-125 -34,-161 -11,-36 -22,-99 -25,-140 -6,-94 -41,-260 -67,-320 -33,-76 -38,-101 -47,-228 -7,-108 -12,-131 -40,-189 -20,-40 -36,-95 -42,-137 -15,-109 -17,-116 -42,-141 -13,-13 -56,-34 -96,-46 -72,-22 -73,-22 -151,-4 -67,16 -90,17 -161,7 -46,-6 -110,-9 -143,-5 -40,3 -91,-1 -148,-12 -48,-9 -102,-15 -119,-13 -18,3 -59,-1 -91,-8 -37,-9 -144,-16 -290,-18 -128,-3 -322,-7 -432,-10 -110,-3 -326,-6 -480,-6 -154,0 -374,-5 -490,-10 -115,-5 -266,-12 -335,-15 -69,-3 -153,-13 -188,-21 -35,-8 -98,-16 -140,-16 -42,-1 -194,-6 -337,-11 -143,-5 -375,-10 -515,-11 -247,-2 -256,-3 -300,-26 -50,-26 -121,-32 -515,-46 -179,-6 -203,-9 -229,-27 -26,-18 -43,-20 -151,-19 -71,2 -134,-2 -151,-9 -16,-6 -63,-10 -104,-10 -41,1 -97,-3 -125,-9 -27,-5 -153,-14 -280,-20 -201,-9 -378,-28 -405,-45 -5,-3 -64,-10 -132,-15 -224,-17 -402,-29 -508,-35 -102,-6 -185,-12 -185,-15 0,-1 -29,-3 -65,-5 -129,-9 -193,-16 -202,-21 -5,-3 -96,-10 -201,-15 -106,-5 -239,-13 -297,-19 -58,-5 -172,-9 -255,-10 -82,0 -177,-5 -210,-11 -33,-5 -114,-14 -180,-19 -139,-11 -164,-14 -305,-40 -58,-11 -148,-22 -200,-25 -52,-4 -120,-9 -150,-12 -30,-3 -116,-7 -190,-10 -74,-2 -153,-10 -175,-18 -54,-18 -215,-30 -422,-30 -256,0 -246,-18 -249,465 -2,217 -8,379 -18,460 -8,74 -15,223 -15,365 -1,132 -4,386 -8,565 -4,179 -6,343 -5,365 1,22 2,200 2,395 0,296 -3,366 -17,422 -15,59 -15,76 -3,154 12,77 12,96 -3,165 -15,71 -15,86 -1,164 8,48 12,96 7,108 -4,12 -6,27 -5,34 2,7 -4,36 -12,65 -16,56 -32,310 -27,414 1,33 -2,103 -8,155 -6,52 -11,281 -12,509 -2,461 -10,617 -39,731 -29,112 -38,235 -45,574 -3,165 -7,307 -9,315 -1,8 -8,34 -15,57 -6,23 -9,53 -6,66 4,15 -4,56 -21,103 -32,93 -41,232 -45,684 -2,304 -15,620 -27,690 -6,31 -4,57 4,80 17,50 6,134 -27,205 -27,59 -35,112 -52,342 -3,36 -13,66 -35,100 -19,30 -33,68 -38,101 -4,29 -15,70 -25,90 -11,20 -19,46 -19,59 0,12 -9,40 -20,62 -12,21 -23,56 -26,77 -10,73 -14,84 -49,118 -24,24 -37,48 -41,77 -8,48 -52,104 -89,113 -14,4 -25,11 -25,16 0,6 -7,10 -15,10 -8,0 -15,5 -15,11 0,5 -5,7 -10,4 -6,-4 -10,-3 -9,2 6,38 -83,119 -170,154 -72,29 -110,57 -118,86 -16,64 -235,116 -323,77 z m 25,-1843 c 17,-4 64,-34 105,-65 41,-31 82,-56 92,-56 9,0 24,-3 33,-6 24,-10 113,-150 130,-206 8,-27 28,-78 46,-113 30,-61 31,-70 27,-147 -5,-89 4,-115 64,-186 34,-39 34,-39 47,-233 12,-159 14,-172 52,-274 19,-52 23,-92 31,-300 5,-132 11,-321 12,-420 3,-187 15,-279 46,-330 27,-46 30,-83 34,-465 3,-269 7,-365 18,-395 20,-57 21,-123 5,-170 -26,-72 -30,-139 -13,-222 19,-97 38,-290 31,-323 -3,-14 -12,-55 -22,-92 l -17,-66 27,-80 c 32,-95 34,-142 7,-249 -21,-81 -21,-81 -1,-160 10,-43 25,-133 32,-199 11,-111 11,-129 -6,-200 -23,-95 -23,-146 -2,-244 13,-61 17,-169 22,-570 12,-1055 14,-1706 7,-1958 -4,-144 -4,-262 -1,-262 17,0 14,-61 -3,-80 -45,-48 -107,-73 -203,-81 -61,-5 -113,-16 -151,-32 -33,-14 -81,-27 -109,-31 -71,-8 -145,-27 -182,-48 -17,-9 -58,-21 -90,-27 -32,-6 -99,-17 -149,-26 -50,-8 -126,-15 -170,-15 -92,-1 -147,-12 -218,-44 -28,-13 -69,-26 -90,-30 -21,-4 -48,-14 -60,-21 -13,-8 -67,-16 -136,-20 -146,-9 -136,-7 -195,-27 -66,-23 -102,-27 -148,-16 -26,6 -56,4 -95,-7 -32,-8 -101,-18 -154,-23 -75,-7 -106,-15 -141,-35 -78,-46 -148,-65 -337,-92 -249,-35 -384,-62 -428,-85 -20,-10 -59,-25 -87,-32 -27,-7 -52,-15 -55,-19 -9,-11 -74,-28 -135,-35 -33,-3 -68,-11 -78,-16 -10,-5 -55,-14 -100,-19 -207,-23 -237,-29 -285,-53 -27,-14 -71,-31 -98,-37 -27,-7 -64,-21 -82,-32 -18,-11 -35,-17 -39,-14 -3,3 -28,-6 -56,-20 -33,-16 -85,-30 -143,-38 -50,-7 -106,-21 -124,-32 -76,-43 -96,-52 -111,-53 -9,0 -30,-7 -45,-15 -16,-8 -39,-15 -51,-15 -13,0 -23,-4 -23,-8 0,-10 -95,-5 -135,7 -16,5 -49,13 -73,16 -78,12 -93,73 -41,170 17,31 39,98 50,148 12,53 34,116 53,151 19,34 39,84 46,111 6,28 20,64 31,81 17,29 38,84 120,322 15,46 39,103 53,126 14,24 30,65 37,92 6,27 22,81 35,121 13,39 24,83 24,97 0,14 4,27 9,31 5,3 15,22 22,43 6,20 23,53 35,72 18,26 24,48 24,93 0,32 6,70 14,85 7,15 21,62 30,104 8,42 27,104 41,137 13,33 32,106 40,161 9,58 26,126 41,157 14,31 38,107 53,169 16,62 38,126 50,143 13,17 29,66 37,112 12,60 25,95 49,131 27,39 35,61 39,115 9,96 22,148 51,191 14,21 33,76 44,122 10,47 30,109 45,138 16,32 35,97 47,165 12,67 32,138 50,176 16,36 33,92 38,125 5,34 21,83 35,110 14,27 26,57 26,68 0,29 26,84 60,127 19,24 38,65 49,107 10,38 30,86 44,108 26,38 47,94 47,128 0,21 18,62 46,108 12,19 32,68 44,108 11,39 36,105 54,145 19,39 42,95 52,122 9,28 28,68 41,91 14,25 27,70 32,114 7,51 18,86 38,119 16,25 35,69 43,96 7,28 29,82 47,121 18,38 39,104 47,146 8,49 25,96 46,134 29,51 34,72 41,159 7,91 12,108 52,185 24,47 49,107 56,134 7,28 23,73 36,100 13,28 26,78 30,111 6,61 17,94 104,316 56,144 73,201 96,314 9,44 25,94 35,110 9,17 28,62 40,100 13,39 35,93 50,120 15,28 33,82 40,120 7,40 30,107 53,155 35,72 56,100 139,181 54,53 98,101 98,106 0,6 12,23 26,38 36,39 80,114 89,150 3,17 14,38 23,48 19,22 64,96 88,147 9,19 36,56 60,82 31,33 45,58 50,87 8,47 13,55 78,107 27,21 69,69 93,106 49,75 164,182 232,217 24,12 64,40 90,61 25,21 57,43 71,49 31,12 244,14 285,2 z m 11240,-7925 c 22,0 90,2 151,5 125,4 151,-5 174,-61 11,-27 11,-51 -4,-153 -16,-113 -27,-153 -87,-337 -11,-36 -27,-88 -34,-116 -7,-28 -18,-60 -24,-73 -7,-12 -16,-76 -21,-142 -7,-87 -17,-140 -36,-192 -36,-101 -62,-191 -74,-262 -6,-33 -20,-82 -30,-110 -11,-27 -26,-85 -34,-127 -13,-65 -37,-127 -87,-221 -6,-10 -13,-57 -16,-105 -5,-72 -12,-99 -39,-152 -22,-44 -36,-91 -44,-145 -14,-108 -25,-144 -65,-223 -25,-48 -35,-80 -35,-113 0,-32 -9,-64 -28,-101 -31,-58 -39,-84 -52,-165 -5,-29 -23,-82 -39,-118 -31,-66 -51,-156 -51,-229 0,-26 -12,-60 -36,-104 -29,-51 -39,-84 -49,-157 -8,-56 -25,-119 -43,-161 -20,-46 -35,-107 -46,-183 -16,-108 -40,-199 -72,-268 -7,-17 -14,-37 -14,-43 0,-7 -20,-72 -44,-144 -24,-72 -47,-156 -51,-188 -4,-38 -17,-75 -41,-114 -30,-49 -36,-72 -43,-144 -12,-133 -40,-160 -165,-160 -53,0 -91,-6 -128,-21 -42,-16 -72,-20 -148,-19 -52,1 -216,-3 -365,-10 -223,-10 -279,-15 -325,-32 -41,-15 -97,-22 -225,-28 -93,-5 -188,-13 -210,-19 -22,-5 -89,-12 -150,-16 -60,-4 -164,-18 -230,-31 -152,-30 -270,-41 -571,-54 -271,-12 -381,-27 -475,-64 -8,-4 -71,-13 -140,-21 -68,-8 -144,-18 -169,-24 -52,-11 -134,-20 -235,-26 -38,-3 -101,-11 -140,-19 -38,-8 -126,-17 -195,-20 -357,-16 -680,-43 -732,-62 -75,-26 -130,-32 -245,-25 -130,8 -152,20 -173,97 -17,60 -8,115 29,172 17,26 35,72 42,101 6,30 24,75 40,100 17,25 36,69 44,96 9,28 31,73 49,100 25,36 37,70 46,122 8,49 21,87 42,118 16,25 37,71 45,103 8,31 27,73 42,92 42,53 115,207 134,283 11,41 34,94 61,135 93,144 181,284 190,302 6,10 23,26 39,35 16,9 44,41 62,70 30,47 139,155 156,155 3,0 30,32 59,71 68,91 111,122 210,148 44,12 95,28 115,36 51,22 94,18 145,-12 25,-14 66,-37 92,-49 26,-13 55,-36 64,-51 9,-16 34,-54 55,-85 38,-55 69,-127 69,-160 0,-9 11,-29 24,-45 37,-45 44,-65 55,-152 6,-45 16,-91 22,-104 28,-51 122,-170 140,-174 10,-3 19,-9 19,-13 0,-5 9,-12 20,-15 11,-3 20,-12 20,-19 0,-21 39,-65 83,-93 32,-20 49,-24 83,-20 34,3 47,0 60,-14 9,-10 20,-17 24,-14 4,2 23,-4 42,-15 28,-14 51,-18 101,-15 98,6 144,22 193,67 36,33 44,47 44,77 0,48 6,54 70,77 52,18 57,23 89,84 18,36 55,95 81,131 65,90 78,116 90,192 13,84 17,93 58,147 32,42 34,49 30,110 -3,56 -11,77 -52,147 -53,92 -94,132 -209,203 -67,41 -90,50 -163,60 -134,19 -189,-3 -220,-88 -24,-68 -54,-92 -115,-92 -78,0 -105,19 -120,86 -16,72 -55,113 -129,137 -18,6 -60,58 -60,74 0,10 -6,27 -12,36 -16,20 -100,80 -153,108 -22,12 -57,37 -78,55 -22,21 -48,34 -64,34 -38,0 -195,30 -217,42 -22,12 -69,21 -108,22 -16,0 -28,3 -28,6 0,4 -6,7 -12,8 -71,8 -123,8 -155,0 -21,-5 -48,-11 -61,-13 -13,-2 -44,-14 -70,-28 -26,-13 -63,-27 -82,-31 -33,-6 -62,-26 -175,-119 -22,-18 -58,-44 -80,-56 -22,-13 -74,-56 -115,-96 -41,-40 -101,-96 -132,-125 -32,-29 -58,-57 -58,-63 0,-5 -22,-32 -50,-59 -35,-34 -53,-62 -61,-91 -6,-27 -27,-61 -55,-91 -31,-34 -46,-61 -50,-88 -4,-24 -21,-57 -45,-86 -22,-26 -39,-52 -39,-59 0,-7 -17,-45 -38,-85 -21,-40 -49,-99 -61,-131 -31,-75 -75,-111 -139,-111 -46,-1 -46,-1 -74,54 -15,30 -28,72 -28,92 0,20 -5,49 -10,64 -6,15 -13,63 -16,108 -3,45 -14,115 -25,156 -15,60 -19,110 -20,259 l 0,185 -51,96 c -28,52 -55,97 -60,98 -4,2 -8,8 -8,14 0,16 -131,159 -160,176 -14,8 -42,36 -62,62 -23,28 -59,59 -93,76 -30,16 -55,32 -55,36 0,3 -15,9 -32,13 -61,12 -141,53 -168,86 -53,65 -382,64 -530,-1 -36,-16 -83,-34 -106,-40 -23,-5 -55,-23 -72,-40 -18,-16 -37,-30 -43,-30 -25,0 -82,-55 -103,-99 -11,-25 -30,-59 -42,-76 -12,-16 -32,-55 -46,-85 -14,-30 -39,-72 -56,-93 -22,-28 -32,-53 -36,-90 -7,-59 -11,-279 -7,-347 2,-28 -6,-67 -19,-104 -32,-84 -25,-159 18,-212 20,-24 32,-50 32,-68 0,-17 13,-46 30,-70 17,-23 41,-56 53,-75 48,-75 53,-76 297,-76 l 218,0 46,32 c 25,18 63,37 86,43 22,6 40,15 40,19 0,5 13,14 29,21 43,17 81,62 88,103 6,38 -23,133 -77,253 -24,53 -34,64 -75,84 -26,13 -57,34 -69,48 -25,29 -50,39 -113,48 -74,9 -115,66 -75,103 9,9 30,35 45,58 16,23 44,52 62,64 18,13 41,36 50,51 34,58 77,88 125,89 25,0 63,4 85,8 48,9 99,-8 167,-57 70,-50 115,-117 133,-198 8,-38 27,-98 42,-134 23,-56 28,-84 33,-205 6,-118 11,-151 33,-208 52,-133 72,-388 58,-727 -5,-135 -10,-389 -9,-565 0,-176 -4,-390 -9,-475 -9,-152 -9,-156 -44,-215 -44,-74 -63,-81 -267,-93 -119,-7 -157,-13 -197,-32 -44,-20 -74,-23 -255,-31 -123,-5 -224,-14 -252,-23 -27,-8 -97,-14 -166,-15 -150,-2 -224,-8 -258,-21 -14,-6 -101,-10 -194,-11 -92,0 -192,-4 -221,-10 -30,-5 -146,-13 -259,-18 -178,-8 -215,-13 -284,-35 -54,-18 -101,-26 -150,-26 -39,0 -89,-5 -111,-10 -57,-14 -159,-14 -185,0 -26,14 -45,57 -55,124 -4,28 -21,79 -37,114 -22,47 -33,89 -39,151 -6,56 -18,107 -35,145 -22,49 -25,68 -20,111 4,35 -1,81 -14,141 -13,58 -20,127 -20,199 0,64 -9,158 -20,225 -33,189 -34,203 -76,860 -19,302 -31,433 -49,505 -8,33 -14,69 -13,80 1,20 -19,347 -26,415 -2,20 0,114 4,210 4,96 3,190 -1,210 -5,19 -9,123 -9,230 -1,155 -5,213 -20,285 -17,73 -20,129 -20,320 -1,126 -5,302 -10,390 -13,248 9,276 237,291 48,3 122,14 163,24 164,39 535,71 904,76 143,2 276,9 295,14 20,5 59,10 88,10 28,0 80,9 115,21 67,21 249,38 434,39 64,0 104,4 112,12 8,8 74,15 195,19 386,15 485,21 562,34 44,7 170,16 280,20 125,4 239,14 304,26 57,10 107,16 112,13 5,-3 46,-5 91,-5 62,-1 103,5 161,24 65,21 98,25 212,26 81,1 153,7 181,16 25,7 105,19 177,25 154,13 270,26 347,41 30,5 125,9 210,9 192,-2 501,6 765,19 159,8 215,15 275,33 64,19 100,23 240,24 91,1 293,9 450,18 157,8 382,18 500,21 118,3 229,7 245,9 91,12 389,19 860,21 369,1 545,5 578,14 27,6 133,14 235,16 103,3 228,9 277,13 50,5 115,6 145,3 30,-3 73,-5 95,-5 z m -10494,-816 c 55,0 71,-69 75,-310 4,-271 4,-262 -3,-295 -11,-51 -4,-134 18,-214 24,-84 38,-256 39,-476 0,-77 8,-246 16,-375 9,-129 15,-275 14,-325 -1,-60 6,-118 19,-175 14,-59 21,-118 20,-190 0,-95 17,-285 27,-302 2,-4 11,-94 19,-200 19,-240 19,-238 44,-378 13,-73 24,-200 31,-345 9,-201 17,-294 34,-370 23,-100 56,-282 57,-308 2,-82 22,-257 35,-307 56,-213 50,-242 -61,-302 -37,-21 -56,-22 -250,-25 -354,-4 -549,-9 -570,-15 -63,-18 -206,-21 -945,-22 -612,-1 -829,-5 -870,-14 -170,-39 -293,-53 -488,-58 -131,-3 -217,-1 -240,6 -21,6 -102,15 -182,20 -80,4 -165,13 -190,20 -50,14 -354,6 -444,-11 -28,-5 -89,-6 -136,-3 -69,5 -93,3 -125,-11 -35,-15 -77,-17 -330,-16 -300,1 -332,4 -450,51 -36,14 -618,27 -982,22 -156,-3 -275,1 -335,9 -51,6 -102,13 -113,15 -11,1 -35,3 -54,3 -24,1 -43,11 -68,36 -34,34 -35,38 -30,89 5,47 50,158 77,191 5,6 13,39 19,73 5,34 24,88 40,120 17,31 45,100 61,152 17,52 39,107 50,121 10,15 26,44 35,65 9,21 24,48 34,59 10,11 24,51 31,90 12,69 40,138 81,203 12,18 26,52 31,75 5,23 23,69 40,102 24,46 33,79 38,145 6,72 14,98 48,165 22,44 44,94 48,110 4,17 22,62 40,101 18,40 38,100 44,135 6,34 23,84 36,111 13,26 31,78 40,115 8,38 31,98 49,134 19,37 41,94 50,128 8,33 28,89 44,123 37,81 41,93 52,153 5,28 27,86 50,131 32,64 42,98 48,160 8,81 14,98 56,159 13,19 26,59 30,88 4,28 15,71 25,93 10,23 21,57 25,75 4,19 13,43 20,54 8,11 18,38 24,60 6,23 23,53 39,68 28,26 45,32 253,76 48,10 102,27 120,39 19,11 54,28 79,37 25,10 59,23 75,30 17,8 53,16 80,18 28,3 74,15 103,26 29,12 89,25 132,30 60,7 88,15 113,33 79,60 122,78 198,83 98,6 184,20 237,39 24,9 80,19 124,22 63,6 94,14 142,39 37,20 84,35 121,40 33,4 68,13 79,21 11,8 29,14 39,14 9,0 64,14 120,30 56,17 140,35 187,40 148,17 194,26 229,46 68,38 77,42 111,48 64,10 77,14 116,35 21,12 57,21 79,21 22,0 75,7 118,15 43,8 104,15 135,15 39,0 73,8 107,24 64,29 111,45 171,56 27,5 67,13 89,19 22,6 65,14 95,17 30,3 91,13 135,24 44,10 127,23 185,30 58,6 150,23 205,37 55,13 129,32 165,40 36,8 81,21 100,29 19,7 46,16 60,18 88,14 109,19 140,30 19,7 60,14 90,15 30,2 58,5 61,7 4,2 49,8 100,14 55,5 118,19 152,33 35,14 83,25 120,26 34,1 64,5 67,7 3,3 18,3 34,0 16,-3 37,-6 47,-6 z m -5944,-1698 c 36,-23 37,-118 2,-180 -11,-19 -19,-52 -19,-78 0,-35 -6,-51 -26,-71 -14,-14 -43,-62 -65,-107 -22,-44 -55,-110 -74,-146 -23,-44 -39,-96 -50,-160 -10,-57 -30,-126 -51,-171 -19,-42 -34,-82 -34,-89 0,-15 -35,-141 -71,-257 -16,-51 -29,-101 -29,-110 0,-10 -16,-38 -35,-62 -19,-24 -37,-60 -40,-80 -16,-94 -27,-137 -44,-165 -10,-17 -28,-60 -41,-96 -12,-35 -37,-89 -56,-120 -19,-30 -42,-85 -52,-122 -19,-68 -59,-139 -109,-193 -40,-44 -61,-92 -68,-160 -7,-64 -26,-119 -51,-146 -8,-9 -22,-45 -30,-79 -8,-34 -25,-80 -38,-103 -14,-23 -32,-73 -40,-110 -20,-86 -33,-111 -93,-175 -57,-61 -79,-64 -170,-30 -55,20 -193,33 -193,17 0,-12 -74,-1 -79,12 -9,29 -77,77 -129,93 -75,23 -168,80 -214,130 -62,68 -72,119 -71,356 1,169 5,223 23,310 35,169 70,291 101,353 16,31 34,78 40,105 6,26 28,79 49,117 21,39 41,81 45,95 4,14 22,50 40,80 18,30 47,99 65,153 29,86 37,101 64,114 29,15 114,112 182,210 41,57 148,160 205,195 24,15 68,45 97,65 28,21 69,48 90,61 21,13 69,53 108,90 38,36 89,77 114,90 71,36 132,74 190,117 30,22 86,53 125,68 38,16 81,38 95,51 50,45 114,86 135,86 12,0 25,3 29,7 4,4 19,9 33,11 14,2 35,10 47,18 22,15 73,19 93,6 z m 22024,-1597 c 16,-28 32,-57 35,-65 3,-8 14,-34 25,-58 10,-23 19,-48 19,-55 0,-8 16,-32 35,-54 34,-40 70,-101 131,-223 17,-36 48,-89 68,-119 20,-29 36,-59 36,-66 0,-12 103,-174 118,-185 4,-3 21,-25 37,-50 16,-25 33,-48 38,-51 14,-10 66,-124 67,-145 0,-12 7,-27 15,-34 8,-7 15,-18 15,-25 0,-6 9,-20 19,-29 19,-17 131,-208 131,-223 0,-4 18,-37 40,-73 22,-36 45,-81 51,-100 6,-19 26,-65 45,-102 19,-37 42,-108 53,-157 11,-49 31,-112 45,-140 14,-28 30,-79 35,-113 5,-35 18,-81 29,-103 29,-60 34,-145 17,-267 -9,-64 -14,-172 -14,-275 1,-108 -4,-206 -14,-273 -9,-58 -19,-126 -22,-151 -3,-26 -19,-67 -34,-90 -16,-24 -34,-67 -41,-96 -7,-33 -22,-61 -41,-80 -16,-15 -45,-51 -64,-79 -19,-31 -60,-71 -97,-97 -35,-25 -73,-59 -86,-77 -13,-17 -35,-36 -50,-43 -15,-6 -43,-21 -62,-33 -19,-13 -62,-30 -95,-39 -33,-9 -87,-34 -120,-56.0003 -34,-21 -86,-47 -116,-58 -30,-10 -74,-28 -97,-39.9995 -30,-15 -74,-25 -142,-31 -82,-7 -108,-13 -152,-38 -38,-21 -73,-32 -123,-38 -38,-4 -81,-8 -95,-10 -14,-2 -50,-6 -80,-9 -30,-3 -68,-8 -85,-10 -98,-15 -279,-26 -330,-21 -33,4 -96,9 -140,11 -72,5 -120,11 -120,15 0,3 -37,9 -110,20 -38,6 -99,24 -134,41 -39,17 -96,34 -140,40 -106,14 -129,23 -274,100.9995 -70,38.0003 -159,78.0003 -198,89.0003 -84,23 -105,36 -184,109 -138,128 -183,190 -211,290 -8,30 -30,87 -49,125 -19,39 -37,88 -41,110 -4,22 -17,65 -29,95 -15,36 -25,87 -29,150 -6,96 -5,108 33,211 11,31 25,84 30,119 21,128 92,279 166,350 32,30 73,75 93,98 20,24 69,69 109,99 90,68 143,80 186,42 22,-20 30,-40 44,-122 16,-91 16,-101 0,-145 -40,-115 -49,-302 -30,-597 9,-148 13,-165 41,-220 17,-33 36,-80 42,-105 7,-25 23,-56 36,-69 13,-13 24,-30 24,-37 0,-24 68,-121 109,-156 23,-19 62,-46 88,-59 27,-13 60,-32 74,-42 19,-13 45,-19 95,-20 103,-2 216,8 239,20 25,14 97,93 145,159 l 35,49 -2,114 c -2,100 -6,121 -28,163 -14,26 -25,55 -25,64 0,10 -24,43 -52,76 -134,148 -147,165 -163,214 -15,46 -15,65 -5,165 24,232 27,530 6,646 -16,88 -26,112 -62,155 -12,15 -26,42 -29,60 -7,32 -39,79 -122,180 -47,57 -58,90 -48,151 6,36 20,55 104,137 91,90 161,175 174,211 3,9 36,40 74,68 37,28 80,68 95,89 51,70 414,443 482,495 21,16 49,45 64,66 15,20 82,89 149,153 199,192 279,215 344,103 z"
       id="path10"
       style="fill:#ffffff;fill-opacity:1"
       inkscape:connector-curvature="0" />
    <path
       d="m 25395.167,23081.08 c -182,-58 -251,-137 -349,-401 -64,-175 -240,-851 -280,-1080 -11,-63 -34,-196 -51,-295 -17,-99 -35,-193 -40,-210 -11,-35 -158,-967 -200,-1270 -16,-115 -39,-264 -50,-330 -29,-166 -143,-892 -175,-1105 -14,-96 -28,-182 -30,-190 -2,-8 -9,-55 -15,-105 -14,-122 -52,-396 -105,-770 -86,-598 -105,-755 -169,-1365 -35,-338 -67,-653 -71,-700 -4,-47 -11,-116 -16,-155 -25,-182 -31,-238 -49,-500 -11,-154 -20,-297 -20,-317 0,-33 -13,-52 -127,-180 -70,-79 -193,-211 -273,-293 -80,-83 -256,-265 -391,-406 -225,-232 -403,-399 -425,-399 -5,0 -20,44 -32,98 -47,193 -82,284 -195,497 -118,225 -158,284 -294,440 -108,123 -161,168 -405,343 -212,152 -321,224 -484,322 -60,36 -131,88 -159,115 -60,59 -138,210 -156,300 -28,141 1,362 68,525 36,86 402,755 545,993 32,54 91,136 131,181 40,45 112,129 161,186 78,93 160,181 418,447 73,74 256,205 343,245 38,17 69,23 125,23 69,0 81,-3 134,-35 80,-48 104,-74 142,-155 39,-79 40,-91 18,-166 -34,-116 -172,-373 -263,-490 -35,-45 -89,-187 -106,-276 -39,-208 52,-402 211,-449 84,-25 206,-23 265,3 49,22 100,78 126,140 9,21 19,86 24,148 7,99 40,316 83,555 19,99 20,209 6,370 -13,145 -29,195 -110,352 -58,113 -73,134 -136,190 -171,152 -214,171 -383,169 -106,0 -123,-3 -240,-42 -128,-43 -237,-93 -371,-171 -41,-25 -90,-53 -109,-64 -52,-29 -220,-160 -279,-218 -74,-71 -271,-290 -373,-416 -110,-135 -226,-302 -324,-465 -42,-71 -99,-164 -125,-205 -119,-188 -269,-454 -326,-579 -91,-199 -114,-310 -114,-564 -1,-203 2,-229 30,-317 29,-88 53,-139 124,-255 167,-273 260,-368 546,-565 46,-32 123,-91 425,-329 107,-85 274,-251 370,-371 85,-105 139,-208 170,-327 21,-77 47,-531 35,-610 -5,-32 -13,-91 -19,-132 -17,-112 -34,-162 -114,-326 -85,-175 -123,-227 -260,-352 -115,-104 -217,-165 -372,-221 l -100,-37 -230,1 c -199,1 -244,4 -334,23 -57,12 -128,34 -159,49 -73,34 -162,118 -195,184 -24,48 -27,64 -27,164 0,91 4,123 24,182 14,40 34,85 46,101 11,16 39,69 61,118 101,218 118,538 36,699 -38,74 -198,256 -292,332 -63,50 -105,75 -172,101 -125,47 -295,81 -443,88 -108,4 -136,2 -209,-16 -254,-66 -530,-267 -743,-543 -140,-180 -172,-251 -249,-553 l -51,-200 7,-215 c 13,-425 22,-496 84,-640 93,-215 266,-377 567,-528 94,-47 201,-71 634,-143 142,-23 422,-28 577,-9 291,35 1160,298 1427,431 103,52 459,285 528,346 93,82 145,147 243,308 76,124 174,349 211,485 10,36 24,69 31,73 8,5 100,84 205,175 104,92 234,205 288,252 54,47 144,126 200,175 229,202 395,343 398,340 7,-7 -21,-297 -38,-395 -11,-58 -51,-316 -90,-575 -66,-435 -77,-493 -151,-784 -44,-172 -98,-361 -120,-419 -38,-101 -45,-112 -216,-326 -97,-121 -192,-235 -210,-252 -77,-73 -114,-227 -78,-333 22,-66 92,-161 147,-198 51,-34.0003 142,-73.0003 172,-73.0003 27,0 143,43 225,83.0003 26,13 60,60 116,162 22,39 53,90 71,115 66,94 207,346 244,434 34,81 159,512 195,670 7,34 31,133 53,221 88,357 114,494 168,880 59,426 93,831 119,1395 13,275 56,399 209,607 116,156 182,217 311,290 148,83 229,109 393,124 270,25 412,-25 519,-183 34,-49 74,-146 97,-233 24,-89 102,-798 136,-1225 16,-206 34,-422 40,-480 16,-166 59,-1027 66,-1340 5,-214 2,-349 -10,-545 -42,-666 -57,-898 -66,-997.0003 -6,-58.9995 -26,-306.9995 -45,-549.9995 -19,-243.9998 -57,-694.9998 -85,-1002.9998 -60,-684 -106,-1437.9998 -140,-2329.9998 -4,-126 -13,-288 -19,-360 -6,-71 -11,-206 -12,-300 -1,-206 26,-733 47,-905 44,-372 164,-917 257,-1175 203,-559 218,-591 485,-1045 206,-349 286,-467 412,-609 47,-53 98,-111 113,-130 28,-33 95,-97 327,-310 63,-58 149,-138 190,-178 174,-167.99995 260,-228.99995 630,-444.99995 301,-176 378,-209 675,-291.99995 228,-63 307,-75 749,-107 329,-24 276,-28 761,57 781,136.99995 966,175.99995 1315,280.99995 47,14 119,33 160,43 85,20 221,69 295,105 260,127 463,399.99995 514,688.99995 6,33 11,110 11,172 0,407 -236,763 -601,908 -134,52 -189,61 -399,60 -182,0 -201,-2 -282,-27 -245,-75 -395,-187 -553,-412 -135,-193 -375,-384 -647,-515 -251,-120 -484,-177 -768,-187 -406,-14 -776,93 -1140,331 -63,41 -166,107 -229,147 -301,191 -488,360 -723,654 -118,149 -245,369 -318,555 -23,58 -70,164 -105,235 -35,72 -91,209 -124,305 -164,481 -173,510 -301,1005 -32,121 -78,299 -103,395 -101,387 -111,566 -92,1603 8,425 19,817 25,872 6,55 15,174.9998 20,264.9998 25,445 74,1135 91,1305 112,1113.9996 113,1130.9996 129,1968.9996 7,342 7,598 1,750 -6,127 -13,382 -16,566 -3,184 -10,389 -16,455 -5,66 -20,269 -34,450 -49,647 -90,1004 -142,1209 -47,189 -170,481 -260,617 -31,47 -196,190 -272,236 -67,41 -265,105 -561,183 -40,10 -56,29 -71,84 -10,37 -7,49 49,185 33,80 79,191 101,246 22,55 68,163 101,240 34,77 74,176 90,220 15,44 57,154 93,245 80,202 115,292 207,530 39,102 86,223 104,270 85,217 158,488 339,1260 98,417 148,656 167,795 48,369 61,490 74,700 29,448 29,475 7,700 -12,116 -26,264 -32,330 -5,66 -28,228 -49,360 -22,132 -49,301 -60,375 -27,172 -45,262 -70,338 -35,106 -136,336 -176,398 -95,148 -230,263 -386,328 -74,31 -98,36 -160,35 -40,0 -98,-9 -128,-18 z m 240,-629 c 65,-32 155,-173 195,-302 36,-118 44,-164 74,-410 18,-140 46,-361 64,-490 31,-230 32,-243 32,-605 -1,-399 -2,-411 -65,-840 -49,-325 -79,-500 -130,-745 -22,-102 -48,-230 -60,-285 -85,-411 -120,-556 -175,-740 -86,-285 -118,-381 -170,-510 -45,-111 -226,-582 -357,-925 -90,-238 -294,-663 -411,-855 -82,-136 -265,-391 -274,-382 -1,2 2,120 7,263 11,253 36,465 115,949 8,50 21,142 29,205 41,309 229,1490 332,2080 89,513 63,350 214,1365 66,446 134,884 150,975 16,91 50,287 75,435 45,263 99,506 151,690 31,111 61,145 127,145 23,0 58,-8 77,-18 z m -5858,-9394 c 62,-29 105,-78 133,-153 15,-37 16,-57 7,-138 -12,-104 -27,-146 -137,-372 -89,-182 -129,-339 -122,-480 4,-72 13,-122 32,-180 48,-141 83,-193 183,-272 34,-26 69,-63 78,-82 29,-61 4,-129 -59,-156 -31,-13 -367,-11 -558,4 -102,9 -126,14 -195,46 -104,48 -242,142 -266,180 -10,16 -39,73 -66,125 l -47,94 -4,181 c -4,203 5,280 47,411 69,213 245,534 361,657 74,78 141,117 246,141 98,22 118,24 220,22 73,-2 101,-7 147,-28 z"
       id="path12"
       style="fill:#ffffff;fill-opacity:1"
       inkscape:connector-curvature="0" />
    <path
       d="m 16097.167,17480.08 c -103,-42 -274,-172 -406,-311 -120,-127 -183,-210 -258,-344 -27,-49 -68,-118 -90,-152 -110,-171 -232,-536 -259,-775 -14,-131 -8,-272 15,-316 56,-108 179,-181 347,-206 61,-9 175,15 241,51 113,61 228,219 273,376 20,70 22,174 5,248 -17,74 -83,193 -140,255 -26,27 -50,60 -54,72 -7,22 23,108 88,244 47,100 160,227 299,339 110,88 153,109 226,109 31,0 48,-6 66,-24 50,-50 50,-48 31,-878 -18,-824 -28,-982 -107,-1723 -17,-159 -39,-375 -49,-480 -18,-188 -48,-465 -95,-885 -35,-319 -133,-1074 -150,-1160 -33,-168 -57,-297 -95,-517 -45,-262 -44,-293 12,-377 45,-68 94,-104 181,-131 134,-43 212,-31 286,43 33,33 52,63 64,102 40,129 158,802 272,1550 156,1023 151,992 216,1484 22,171 48,355 59,410 10,56 44,243 75,416 154,862 138,808 399,1360 222,469 229,480 316,480 123,0 142,-31 290,-465 31,-93 74,-219 95,-280 68,-198 157,-340 310,-490 137,-135 368,-252 556,-280 139,-20 225,-18 346,9 123,28 232,89 322,181 79,82 159,254 236,510 31,105 68,222 80,260 58,174 75,245 81,337 7,94 6,97 -18,121 -17,17 -42,28 -74,32 -27,4 -81,13 -121,21 -40,8 -96,14 -124,14 -101,0 -187,-65 -207,-156 -25,-109 -92,-467 -92,-487 0,-38 -29,-136 -56,-192 -37,-75 -78,-122 -147,-166 -140,-91 -308,-69 -432,57 -76,78 -118,166 -186,396 -74,247 -134,433 -166,513 -138,344 -234,471 -439,585 -186,103 -193,105 -404,105 -250,0 -241,6 -385,-239 -89,-152 -155,-284 -155,-312 0,-9 -13,-29 -29,-45 -35,-35 -96,-40 -129,-11 -17,14 -122,246 -122,268 0,3 -27,69 -60,145 -33,76 -60,141 -60,144 0,14 -65,102 -94,128 -67,60 -74,61 -301,64 l -210,2 -73,-29 z"
       id="path14"
       style="fill:#ffffff;fill-opacity:1"
       inkscape:connector-curvature="0" />
    <path
       d="m 29000.167,15618.08 c -181,-27 -349,-64 -434,-95 -156,-56 -273,-105 -321,-134 -25,-15 -86,-51 -137,-80 -82,-46 -266,-183 -347,-257 -103,-96 -304,-353 -356,-455 -8,-16 -26,-41 -40,-55 -20,-22 -25,-37 -25,-79 0,-46 4,-57 33,-85 31,-32 35,-33 130,-36 l 97,-3 57,43 c 31,24 118,97 193,163 76,66 165,140 199,164 33,24 63,47 66,50 31,42 351,263 445,307 92,44 275,88 432,104 105,11 147,10 310,-5 216,-20 261,-32 471,-128 141,-64 187,-95 371,-250 124,-104 293,-380 320,-524 9,-46 10,-277 6,-905 l -7,-843 -40,-320 c -22,-176 -45,-328 -50,-340 -6,-11 -14,-33 -19,-50 -4,-16 -19,-73 -33,-125 -76,-272 -100,-922 -41,-1064 28,-65 146,-219 230,-296 70,-66 91,-79 163,-104 75,-26 96,-29 210,-28 173,0 318,23 391,62 101,54 183,150 205,242 3,15 7,62 7,104 1,65 -3,84 -30,139 -39,78 -96,136 -169,172 -51,24 -69,27 -158,28 -99,0 -103,-1 -147,-32 -31,-23 -57,-33 -81,-33 -31,0 -40,6 -66,42 -49,67 -60,122 -60,298 0,124 5,185 25,291 27,146 71,420 86,539 26,206 38,660 40,1502 l 1,867 -33,113 c -29,99 -42,127 -108,225 -117,172 -352,425 -466,502 -110,75 -251,151 -334,183 -282,107 -347,128 -466,152 -39,8 -106,21 -150,30 -87,17 -270,20 -370,4 z"
       id="path16"
       style="fill:#ffffff;fill-opacity:1"
       inkscape:connector-curvature="0" />
    <path
       d="m 28645.167,14244.08 c -14,-2 -52,-9 -85,-15 -69,-12 -194,-60 -340,-130 -134,-64 -405,-260 -579,-418 -102,-92 -160,-155 -231,-249 -108,-144 -144,-209 -209,-377 -73,-188 -85,-228 -138,-470 -30,-136 -31,-149 -35,-445 -6,-371 14,-553 77,-720 12,-30 27,-71 35,-90 22,-58 86,-167 182,-310 95,-143 217,-271 318,-335 119,-75 368,-207 436,-231 191,-65 485,-83 735,-44 71,11 174,27 229,35 55,9 125,22 155,31 63,18 167,72 223,117 58,45 228,261 295,375 69,116 90,168 129,318 25,100 27,122 25,274 -3,216 -12,264 -69,383 -68,142 -135,193 -303,232 -72,17 -80,17 -159,1 -162,-33 -274,-113 -377,-267 -66,-100 -87,-171 -82,-285 3,-81 8,-100 40,-165 26,-52 60,-97 112,-150 80,-81 89,-100 84,-169 -3,-40 -8,-48 -61,-91 -117,-94 -230,-114 -597,-106 -261,6 -310,13 -420,63 -30,14 -77,39 -104,56 -57,37 -183,177 -225,252 -82,143 -171,500 -171,686 0,93 33,393 52,468 63,256 176,492 331,692 142,182 203,240 380,356 236,155 425,231 604,241 143,8 229,-14 287,-75 57,-60 95,-81 165,-93 53,-8 66,-7 100,10 124,64 184,241 118,353 -41,70 -84,102 -262,194 -152,79 -228,96 -450,99 -104,2 -201,1 -215,-1 z"
       id="path18"
       style="fill:#ffffff;fill-opacity:1"
       inkscape:connector-curvature="0" />
  </g>
</svg>
