<?xml version="1.0" encoding="UTF-8" standalone="no"?>
<svg
   xmlns:dc="http://purl.org/dc/elements/1.1/"
   xmlns:cc="http://creativecommons.org/ns#"
   xmlns:rdf="http://www.w3.org/1999/02/22-rdf-syntax-ns#"
   xmlns:svg="http://www.w3.org/2000/svg"
   xmlns="http://www.w3.org/2000/svg"
   xmlns:sodipodi="http://sodipodi.sourceforge.net/DTD/sodipodi-0.dtd"
   xmlns:inkscape="http://www.inkscape.org/namespaces/inkscape"
   version="1.0"
   width="6300pt"
   height="3100pt"
   viewBox="0 0 6300 3100"
   preserveAspectRatio="xMidYMid meet"
   id="svg2"
   inkscape:version="0.92.2 (5c3e80d, 2017-08-06)"
   sodipodi:docname="painting_9.svg">
  <defs
     id="defs22" />
  <sodipodi:namedview
     pagecolor="#ffffff"
     bordercolor="#666666"
     borderopacity="1"
     objecttolerance="10"
     gridtolerance="10"
     guidetolerance="10"
     inkscape:pageopacity="0"
     inkscape:pageshadow="2"
     inkscape:window-width="1853"
     inkscape:window-height="1025"
     id="namedview20"
     showgrid="false"
     inkscape:zoom="0.12234707"
     inkscape:cx="4387.8384"
     inkscape:cy="1273.0395"
     inkscape:window-x="67"
     inkscape:window-y="27"
     inkscape:window-maximized="1"
     inkscape:current-layer="g6"
     inkscape:measure-start="3268.32,786.014"
     inkscape:measure-end="3213.41,635.747"
     showguides="false">
    <sodipodi:guide
       position="2180.32,788.902"
       inkscape:color="rgb(167,0,255)"
       inkscape:label="Measure"
       orientation="0.965226,-0.261416"
       id="guide921"
       inkscape:locked="false" />
    <sodipodi:guide
       position="2180.32,788.902"
       inkscape:color="rgb(167,0,255)"
       inkscape:label=""
       orientation="-0,1"
       id="guide923"
       inkscape:locked="false" />
    <sodipodi:guide
       position="2180.32,788.902"
       inkscape:color="rgb(167,0,255)"
       inkscape:label="Start"
       orientation="-1,6.12323e-17"
       id="guide925"
       inkscape:locked="false" />
    <sodipodi:guide
       position="2095.8,476.81"
       inkscape:color="rgb(167,0,255)"
       inkscape:label="End"
       orientation="-0,1"
       id="guide927"
       inkscape:locked="false" />
    <sodipodi:guide
       position="2095.8,476.81"
       inkscape:color="rgb(167,0,255)"
       inkscape:label=""
       orientation="-1,6.12323e-17"
       id="guide929"
       inkscape:locked="false" />
    <sodipodi:guide
       position="2451.24,589.511"
       inkscape:color="rgb(167,0,255)"
       inkscape:label="Measure"
       orientation="0.939265,-0.343193"
       id="guide931"
       inkscape:locked="false" />
    <sodipodi:guide
       position="2451.24,589.511"
       inkscape:color="rgb(167,0,255)"
       inkscape:label=""
       orientation="-0,1"
       id="guide933"
       inkscape:locked="false" />
    <sodipodi:guide
       position="2451.24,589.511"
       inkscape:color="rgb(167,0,255)"
       inkscape:label="Start"
       orientation="-1,6.12323e-17"
       id="guide935"
       inkscape:locked="false" />
    <sodipodi:guide
       position="2410.06,476.81"
       inkscape:color="rgb(167,0,255)"
       inkscape:label="End"
       orientation="-0,1"
       id="guide937"
       inkscape:locked="false" />
    <sodipodi:guide
       position="2410.06,476.81"
       inkscape:color="rgb(167,0,255)"
       inkscape:label=""
       orientation="-1,6.12323e-17"
       id="guide939"
       inkscape:locked="false" />
  </sodipodi:namedview>
  <metadata
     id="metadata4">
Created by potrace 1.15, written by Peter Selinger 2001-2017
<rdf:RDF>
  <cc:Work
     rdf:about="">
    <dc:format>image/svg+xml</dc:format>
    <dc:type
       rdf:resource="http://purl.org/dc/dcmitype/StillImage" />
    <dc:title />
  </cc:Work>
</rdf:RDF>
</metadata>
  <g
     transform="matrix(0.1,0,0,-0.1,0,3100)"
     id="g6"
     style="fill:#000000;stroke:none">
    <path
       style="fill:#091772;fill-opacity:1;stroke-width:1.00929451"
       d="m 43855.224,26895.493 c -628.708,-0.38 -1291.26,-548.91 -1615.063,-1724.014 -934.275,-3096.839 -1770.425,-5431.522 -2738.994,-8106.631 -87,-242.446 -151.005,-500.159 -179.004,-522.57 -3817.686,-1182.091 -3918.859,-4636.001 -1888.887,-4760.536 -289.022,-547.022 -675.171,-915.988 -1127.109,-1261.879 -802.268,-542.3245 -1484.093,143.553 -1506.006,830.215 -59.001,1346.449 -71.002,2710.972 -238.99,4013.587 -38.907,859.987 -624.319,2394.359 -1432.998,2115.79 -205.732,-70.869 -377.839,-283.179 -382.251,-485.039 0,-206.93 164.673,-374.678 367.808,-374.677 10.639,0.08 21.269,0.634 31.86,1.656 156.35,11.936 297.169,166.105 327.012,292.232 55.811,27.827 152.176,-58.051 178.565,-86.129 958.71,-1842.87 473.272,-4290.321 690,-6005.091 25.999,-179.287 82.994,-372.835 143.994,-481.832 481.097,-840.111 1252.691,-801.6402 2115,-351.443 834.379,435.616 1570.005,1776.569 1570.005,1776.569 l 7045.942,-23.472 c 163.466,-4758.7695 498.117,-10915.60528 4674.053,-11577.20749 849.497,-134.587401 2133.645,445.30501 2190.498,1292.76789 28.518,425.1063 -265.071,805.4257 -659.883,946.1588 -383.165,141.4994 -785.189,-139.5282 -1085.04,-307.5723 -4041.792,-2265.12443 -4540.575,9659.1471 -4540.575,9659.1471 l 2891.748,-6.834 c -73.091,-626.625 -169.947,-1365.017 -302.271,-2412.2611 -58.44,-462.5051 467.874,-782.7873 543.003,-369.7822 219.903,1208.8833 326.953,1781.4393 463.638,2724.3703 l 4809.516,16.239 c -1275.185,-5842.4696 1706.121,-2535.4116 3600.371,-964.294 2876.313,-2754.453 6258.892,-915.7913 3655.005,3519.519 -60.391,102.866 -126.694,224.356 -131.001,345.326 1316.788,1726.597 -1632.807,4085.659 -625.005,231.245 l -31.992,-61.12 c -18,-33.617 -33.003,-76.404 -33.003,-94.74 -1734.009,-1877.412 -205.314,-209.972 -1734.009,-1877.412 -480.648,-67.502 -966.781,-402.517 -1162.998,-1088.977 -2752.304,-2049.6684 -3390.856,-2350.9345 -2892.62,-10.124 1818.912,-74.143 2337.219,706.998 123.627,672.34 l 1792.786,7920.736 c 2597.25,655.174 2378.863,1496.581 193.72,860.341 l 474.489,2576.067 c 620.165,3366.962 -3430.194,420.222 -3990.995,-2329.713 -159.828,-783.728 563.97,-499.929 725.991,-94.739 336.164,840.698 720.413,1774.114 1384.013,2409.172 804.773,770.158 1226.933,22.773 1143.999,-565.365 -103.54,-734.266 -457.002,-2177.142 -457.002,-2177.142 l -10686.416,-2782.38 -223.593,6577.171 c -46.693,1373.51 -735.67,2122.772 -1470.938,2122.327 z m -28.681,-889.307 c 409.194,0.321 808.295,-392.123 919.628,-1031.319 l 206.998,-6911.708 -4851.006,-1309.002 c 2303.737,6819.044 75,213.922 2863.008,8416.293 197.849,582.077 532.863,835.48 861.372,835.736 z m 12262.299,-5874.392 -1777.68,-7754.351 -4812.027,-11.027 c 93.324,523.107 208.667,1489.547 374.502,1963.556 281.757,738.278 574.53,307.02 681.006,-30.56 94.798,-300.556 217.131,-594.075 405,-784.39 351.075,-310.274 939.832,-469.72 1223.994,-91.68 229.557,305.395 357.748,726.358 397.002,1127.685 19.784,202.261 -56.274,175.315 -127.002,176.228 -101.001,0 -186.998,-66.219 -206.997,-158.919 -63.128,-280.393 -87.161,-461.261 -193.008,-676.399 -215.216,-434.213 -662.376,-109.226 -765,231.246 -74.001,251.612 -140.85,438.617 -165.996,522.569 -179.986,600.876 -1127.742,1114.83 -1392.993,520.554 -72.905,-163.337 -205.996,-535.301 -215.01,-562.306 -95.409,-285.836 -162.527,-263.173 -187.383,-2.462 -174.719,1832.579 -1784.877,251.825 -1875.513,-676.564 -24.42,-341.205 262.346,-620.135 551.529,-626.037 306.486,0 554.943,253.094 554.941,565.304 -0.1,246.178 -156.576,463.99 -386.894,538.536 -0.188,0.481 -0.533,1.122 -0.675,1.551 14.994,266.708 226.621,480.096 386.997,593.896 224.014,155.05 350.932,60.201 334.453,-136.581 1.455,-108.2 -3.204,-304.013 -11.455,-671.237 -28.469,-696.039 -66.278,-1232.418 -125.127,-1815.992 l -2975.347,35.096 -218.672,5105.191 z m -11102.671,-2751.152 192.539,-4963.954 -6760.546,23.382 1335,3486.93 z m -6033.999,-1729.714 -1248.999,-3188.445 c -2140.48,29.451 -1736.52,2312.596 1248.999,3188.445 z M 60882.553,14230.263 C 62275.09,11783.11 60816.4,9286.2434 58820.17,10300.852 c -580.857,363.546 -766.143,680.454 -37.002,1576.912 192.799,237.041 570.054,26.327 338.994,-128.359 -1180.611,-790.377 450.381,-1948.9938 628.008,-454.33 44.427,373.829 94.613,891.998 -313.648,1327.704 z"
       id="path10"
       inkscape:connector-curvature="0"
       sodipodi:nodetypes="scccccccccccccccsccsscscccccccsccccccccccsssssccssscccsscccccccsccccccccccccccccccccccccccccccssscc" />
    <path
       style="fill:#091772;fill-opacity:1;stroke-width:0.13333334"
       d="m 3510.0469,813.26562 c -50.3472,0.0397 -113.4581,71.25322 -170.5586,238.06058 -148.6226,434.1693 -139.1471,876.3872 -169.4668,1138.9336 l -168.1328,152.4004 c -26.8039,-155.0486 -101.238,-178.9434 -182,-228.6661 -46.709,-25.8397 -52.0678,-83.6263 -32.9336,-125.3339 30.8913,-67.3356 64.5691,-126.6176 111.5996,-181.334 71.4277,-95.6466 188.4593,-142.1898 120.6953,19.8281 -23.0247,7.0203 -38.7649,28.253 -38.7891,52.3242 0,30.2431 24.5167,54.7599 54.7598,54.7598 28.3345,-0.014 51.9791,-21.6401 54.5137,-49.8613 5.8314,-43.9412 8.7612,-86.4559 12.2871,-125.0508 18.5764,-203.3474 -152.2788,-91.2061 -217.0664,-28.7989 -62.7096,65.8554 -119.8847,149.6556 -153.0664,222 -42.9403,93.6203 9.6897,183.1517 78.1328,226.7989 59.8092,38.1414 111.2844,72.3833 128.668,136.9336 13.3972,78.4054 3.4969,143.9181 -47.7344,189.334 -41.4307,36.7274 -85.8751,48.6765 -138.1328,31.1992 -63.5087,-21.2402 -51.0683,-67.1766 -33.334,-106.4004 37.9485,-92.8184 51.0957,-191.6122 -116.1328,-184.666 -276.2038,11.4726 -309.4037,354.6326 -83.1993,395.3339 124.3451,23.0472 234.5995,5.4041 355.7325,-51.2011 115.3918,-53.9224 137.0664,-161.5996 137.0664,-161.5996 l 143.4668,-125.5996 c 0,0 -17.6712,244.791 -82,333.1992 -11.2143,15.4106 -29.4957,29.831 -36.4395,46.6347 -14.111,32.4247 20.3536,75.7998 43.8379,68.2266 78.9413,-25.4571 104.1103,-159.674 117.2695,-227.3945 27.4878,-158.4151 32.0495,-213.138 66.8067,-415.7676 246.7081,-88.1903 199.209,82.6004 198.7578,260.4199 -2.3039,907.9728 168.7393,1799.7211 631.1895,1753.5235 114.1107,-11.3994 284.4853,-59.3742 292.0664,-172.3692 3.8009,-56.6808 -35.3435,-107.3899 -87.9844,-126.1543 -51.0891,-18.8666 -107.7784,13.8199 -144.6719,41.0098 -400.4303,295.1101 -629.8492,-725.8948 -623.0469,-1501.2012 2.4206,-275.8956 -42.8914,-366.9058 -210.3183,-351.9941 178.7082,-409.2991 206.3105,-528.9566 259.334,-770.7989 54.8465,-253.64383 7.3658,-426.79034 -71.1758,-426.72848 z m -35.125,164.36719 c 44.6241,-0.02 77.2849,112.81919 45.5,264.35739 -26.2514,125.156 -95.8555,429.3391 -272.666,784.9317 38.0993,-419.3742 28.3349,-409.8319 142.8476,-901.3028 24.3587,-104.5437 56.6401,-147.97415 84.3184,-147.98629 z M 2617.4551,2331.418 c 16.4541,0.1829 30.7428,6.5208 37.2344,23.2382 1.9269,4.9629 3.3843,7.814 0.9335,18.4004 -12.3953,53.542 -49.3679,129.3022 -5.8671,173.8653 39.8005,40.7724 -72.8207,36.4351 -97.8672,25.0683 -89.9836,-40.8369 -106.897,-144.6294 3.334,-219.7343 16.3422,-11.1348 41.077,-21.0734 62.2324,-20.8379 z"
       transform="matrix(7.4999999,0,0,-7.4999999,0,31000)"
       id="path12"
       inkscape:connector-curvature="0"
       sodipodi:nodetypes="cscccccccccccccccscscscccccccssccssccccscsccccsccc" />
    <path
       style="fill:#091772;fill-opacity:1;stroke-width:1"
       d="m 15052.266,16342.51 c -24.42,-334.95 262.345,-608.766 551.528,-614.56 306.486,0 554.942,248.455 554.941,554.941 -0.1,241.665 -156.576,455.482 -386.894,528.662 -0.188,0.472 -0.533,1.103 -0.675,1.524 14.994,261.816 226.622,471.293 386.997,583.007 224.014,152.206 350.943,59.1 334.463,-134.075 1.456,-106.216 -3.213,-298.44 -11.465,-658.932 -66.078,-1585.964 -182.181,-2326.914 -495.996,-4764.991 -58.44,-454.025 467.874,-768.436 543.003,-363.003 402.199,2170.49 426.638,3807.726 945.996,5265 281.757,724.742 574.53,301.39 681.006,-30 94.798,-295.047 217.131,-583.184 405,-770.009 351.075,-304.586 939.832,-461.109 1223.993,-90 229.557,299.796 357.748,713.04 397.002,1107.011 19.784,198.552 -56.273,172.101 -127.002,172.998 -101,0 -186.997,-65.006 -206.997,-156.005 -63.127,-275.255 -87.16,-452.805 -193.008,-663.999 -215.215,-426.252 -662.375,-107.223 -765,227.006 -74,247 -140.849,430.577 -165.995,512.989 -179.986,589.86 -1127.742,1094.391 -1392.993,511.01 -72.905,-160.343 -205.996,-525.488 -215.01,-551.997 -95.409,-280.597 -162.519,-258.353 -187.375,-2.423 -174.719,1798.982 -1784.884,247.215 -1875.519,-664.154 z"
       id="path14"
       inkscape:connector-curvature="0"
       sodipodi:nodetypes="ccccccccsscscssccccssssc" />
    <path
       id="path16"
       style="fill:#091772;fill-opacity:1;stroke-width:8"
       d="m 29367.539,16212.579 c -638.888,0.622 -1368.805,-536.608 -2002.368,-1415.494 -136.151,-188.871 182.73,-243.626 292.001,-160.005 297.358,227.556 594.115,527.63 903.003,683.995 517.583,213.03 1104.41,-8.308 1508.995,-338.995 338.875,-325.159 352.3,-928.935 338.188,-1285.854 l -82.822,103.711 c -1781.015,2230.196 -4644.378,-2345.918 -2248.357,-3420.807 405.804,-152.869 1018.9,-103.604 1342.002,138.999 300.173,230.322 297.248,551.298 300.557,847.734 0,262.949 -213.155,476.121 -476.103,476.118 -262.943,0 -476.106,-213.176 -476.104,-476.118 0,-174.65 95.697,-335.253 249.243,-418.477 -203.648,-105.758 -297.995,-116.108 -417.011,-90.937 -98.923,20.921 -224.157,57.105 -358.199,168.603 -1025.401,857.388 -259.747,2402.689 631.611,2882.081 541.79,287.62 1014.846,53.169 1286.265,-196.583 114.853,-105.685 193.598,-206.044 226.172,-255.879 -88.386,-1038.539 -437.673,-2336.694 125.566,-2879.531 112.989,-101.683 373.269,-240.808 511.202,-243.061 263.985,0 477.984,214.008 477.978,477.993 0,263.979 -213.999,477.975 -477.978,477.978 -77.595,-0.1 -153.999,-19.089 -222.612,-55.326 -1.058,813.141 106.263,1735.387 127.411,2564.413 4.153,162.786 93.74,801.531 -441.005,1661.998 -325.676,524.048 -708.089,753.099 -1117.632,753.501 z"
       inkscape:connector-curvature="0"
       sodipodi:nodetypes="ccccccsccccccccccccccccsscc" />
    <path
       style="fill:#091772;fill-opacity:1;stroke-width:8"
       d="m 10340.172,29230.078 c -1696.3656,-2240.134 -1667.9016,-5228.351 -2222,-9948 L 4736.3312,16774.87 c 0,0 -491.1226,4417.332 -707.1594,5563.208 -216.0368,1145.877 -189.1502,1452.758 -468,2073 -269.8174,681.234 -897.7818,663.304 -1290.3601,187.363 C 978.7868,21911.703 742.42817,19587.95 368.17187,16900.078 c -10,-76 -18,-188 -18,-270 0,-123 2,-144 20,-169 221.86413,-159.535 638.16993,-309.723 1051.99993,-331 61,15 143,153 162,275 88.3124,2570.249 370.5285,5373.212 1339,7625 81.2178,159.534 226.8495,251.954 328,100 618.8037,-2849.271 790.5754,-4874.21 1054,-7687 -3302.9184,-2660.679 -4130.84998,-6926.758 333,-3848 809.5175,-4139.6212 2518.8062,-2130.933 3438.0002,2536 1021.8592,745.561 2910.003,2314.208 4387,2530 311.086,32.352 531.783,-122.13 515,-401 -48.726,-809.632 -64.806,-808.504 -64.806,-808.504 -1882.883,796.859 -5398.8092,-3903.959 -3160.194,-5438.496 754.302,-517.063 1989.622,-127.935 2241.696,205.104 252.074,333.038 250.502,808.713 140.71,1234.99 -41.748,190.067 -210.012,325.561 -404.609,325.812 -229.085,0 -414.793,-185.712 -414.797,-414.797 30.271,-203.494 131.375,-327.153 287,-400.109 15.699,-150.293 -43.137,-331.624 -132,-425 -259.535,-208.908 -657.252,-179.202 -855,15 -1222.0216,1349.204 510.924,4503.654 1669,4498 368.462,-8.934 623.883,35.208 611,-320 -55.218,-1522.454 -212.106,-3219.268 222,-4227 542.993,-1260.501 2492.89,-374.068 2692,689 23.746,131.153 1.797,248.893 -98,303 -1085.795,-1118.704 -1988.464,-1275.851 -2257,-342 -277.431,1571.769 -51.029,3232.435 51,4810 11.69,175.232 37.87,305.523 -4,473 -93.336,394.519 -461.217,690.107 -749,707 -115,7 -232,7 -348,1 -1440.143,-322.376 -3050.8616,-1454.987 -4218,-2341 l 605.6912,3147.396 c 3314.0338,3076.384 4307.5508,5141.02 5566.3088,7473.604 2334.142,4325.36 -1607.756,5988.166 -4019,2804 z m 3417.732,-2218.424 c -1115.635,-2292.131 -3034.139,-5675.53 -5017.732,-7354.576 463.0072,2462.453 414.5496,5951.768 1514.523,8192.995 956.537,2544.803 4425.115,1317.304 3503.209,-838.419 z M 8027.7968,18564.031 c 3.048,0.168 4.7504,-1.515 5.3752,-4.953 l -529.0002,-3259 -2536,-1832 -218.9171,2621.46 c 3283.9173,2469.54 0,0 3278.5421,2474.493 z m -3681.625,-2738.953 184,-2677 c -3035.8739,-2629.425 -3631.33164,-419.153 -184,2677 z M 7439.25,14632.187 C 6737.3306,11332.29 5665.093,9401.0232 5028.7162,12856.612 Z"
       id="path8"
       inkscape:connector-curvature="0"
       sodipodi:nodetypes="scczcccscccccccccscszcccccccsscccccccccsscccccccccccccccc" />
  </g>
</svg>
